<?xml version="1.0" encoding="utf-8"?>
<!-- Generator: Adobe Illustrator 19.0.1, SVG Export Plug-In . SVG Version: 6.00 Build 0)  -->
<!DOCTYPE svg PUBLIC "-//W3C//DTD SVG 1.1//EN" "http://www.w3.org/Graphics/SVG/1.1/DTD/svg11.dtd">
<svg version="1.1" id="Layer_1" xmlns="http://www.w3.org/2000/svg" xmlns:xlink="http://www.w3.org/1999/xlink" x="0px" y="0px"
	 viewBox="0 0 600 217.4" style="enable-background:new 0 0 600 217.4;" xml:space="preserve">
<style type="text/css">
	.st0{display:none;fill:#003E54;}
	.st1{fill:#3ACCE6;}
	.st2{fill:#FFFFFF;}
	.st3{fill:#003E54;}
</style>
<rect id="XMLID_1_" x="-141" y="-163.8" class="st0" width="898" height="705"/>
<g id="XMLID_21_">
	<polygon id="XMLID_19_" class="st1" points="566.4,0 549.8,0 583.4,58.2 549.8,116.5 566.4,116.5 600,58.2 	"/>
	<polygon id="XMLID_20_" class="st1" points="33.6,0 50.2,0 16.6,58.2 50.2,116.5 33.6,116.5 0,58.2 	"/>
	<polygon id="XMLID_40_" class="st2" points="50.2,116.5 16.6,58.2 50.2,0 549.8,0 583.4,58.2 549.8,116.5 	"/>
	<g id="XMLID_22_">
		<path id="XMLID_2_" class="st3" d="M84.2,93.6H63V22.9h22.1c20.2,0,35.2,9.5,35.2,35.4C120.3,83.1,102.3,93.6,84.2,93.6z
			 M84.7,36.6h-7.5v43.2h7c14.8,0,21.6-8.7,21.6-21.6C105.8,43.8,99.6,36.6,84.7,36.6z"/>
		<path id="XMLID_5_" class="st3" d="M136.5,93.6V22.9h49.1v13.8h-35v12.2h20.3v13.7h-20.3v17.1h36.5v13.8H136.5z"/>
		<path id="XMLID_7_" class="st3" d="M237,93.6h-13.7l-25.1-70.7h15.7l13.3,40.9c1.3,3.9,2.7,9.1,3.3,11.6c0.6-2.6,1.9-7.5,3.2-11.6
			l13-40.9h15.5L237,93.6z"/>
		<path id="XMLID_9_" class="st3" d="M306.9,68.5h-15.6v25.1h-14.1V22.9h30.9c13.3,0,24.3,7.4,24.3,22.4
			C332.5,61.7,321.6,68.5,306.9,68.5z M307.7,36.6h-16.3v18.2h16.5c6.6,0,10.1-3,10.1-9.2C318,39.4,313.9,36.6,307.7,36.6z"/>
		<path id="XMLID_12_" class="st3" d="M374.9,94.7c-19.3,0-30.7-15-30.7-36.5s11.4-36.5,30.7-36.5s30.7,15,30.7,36.5
			S394.2,94.7,374.9,94.7z M374.9,35.8c-11.4,0-16.2,9.8-16.2,22.4s4.7,22.4,16.2,22.4c11.4,0,16.2-9.8,16.2-22.4
			S386.3,35.8,374.9,35.8z"/>
		<path id="XMLID_15_" class="st3" d="M444.6,94.7c-11.8,0-22.1-4.9-27.5-12.8l10.2-9.1c5,5.8,11.3,8.1,18.1,8.1
			c8.4,0,12.3-2.3,12.3-7.7c0-4.5-2.4-6.6-15.8-9.6c-13-3-22.1-7.2-22.1-21.1c0-12.8,11.3-20.7,25.3-20.7c11,0,19.1,4.1,25.8,11.1
			l-10.2,9.9c-4.5-4.6-9.6-7.3-16.1-7.3c-7.6,0-10.1,3.2-10.1,6.4c0,4.4,3,5.9,14.2,8.5c11.2,2.6,23.6,6.5,23.6,21.8
			C472.4,85.6,463.9,94.7,444.6,94.7z"/>
		<path id="XMLID_17_" class="st3" d="M516.6,36.8v56.8h-14.1V36.8h-20.3V22.9h54.8v13.9H516.6z"/>
	</g>
</g>
<g id="XMLID_23_">
	<path id="XMLID_25_" class="st1" d="M196.1,216.3h-32.7v-72h33c14,0,22.8,6.7,22.8,19c0,6.2-2.9,11.1-7.6,14
		c5.8,2.6,10.1,7.8,10.1,15.7C221.7,208.2,211.5,216.3,196.1,216.3z M195.8,157.6h-18.3v13.7h19c6,0,8.1-2.8,8.1-6.8
		C204.6,159.9,202.1,157.6,195.8,157.6z M196.6,184h-19.1v18.6h19.1c7,0,10.3-3.7,10.3-9.4C206.9,187.1,203.6,184,196.6,184z"/>
	<path id="XMLID_29_" class="st1" d="M239.5,216.3v-72h14.4v57.8H290v14.2H239.5z"/>
	<path id="XMLID_31_" class="st1" d="M331,217.4c-19.6,0-31.3-15.2-31.3-37.1c0-21.9,11.6-37.1,31.3-37.1
		c19.6,0,31.3,15.2,31.3,37.1C362.3,202.2,350.6,217.4,331,217.4z M331,157.5c-11.6,0-16.5,10-16.5,22.8c0,12.9,4.8,22.8,16.5,22.8
		c11.6,0,16.5-10,16.5-22.8C347.4,167.5,342.6,157.5,331,157.5z"/>
	<path id="XMLID_34_" class="st1" d="M407.7,217.4c-18.8,0-31.5-14.4-31.5-37.1c0-21.9,13.2-37.1,32-37.1c14.7,0,22.5,6.9,27.2,18
		l-13.7,5.7c-2.7-5.3-6-9.4-13.8-9.4c-10.8,0-17,9.5-17,22.8c0,13.3,6.3,23,17.1,23c9.9,0,13.3-4.6,14.1-10.9h-11.4V179h25.8v9.5
		C436.6,206.9,424.4,217.4,407.7,217.4z"/>
</g>
<text id="XMLID_24_" transform="matrix(1 0 0 1 157.521 -278.6662)" class="st1" style="font-family:'Interstate-Bold'; font-size:102.8228px; letter-spacing:3;">blog</text>
</svg>
