<?xml version="1.0" encoding="utf-8"?>
<!-- Generator: Adobe Illustrator 18.0.0, SVG Export Plug-In . SVG Version: 6.00 Build 0)  -->
<!DOCTYPE svg PUBLIC "-//W3C//DTD SVG 1.1//EN" "http://www.w3.org/Graphics/SVG/1.1/DTD/svg11.dtd">
<svg version="1.1" id="Layer_1" xmlns="http://www.w3.org/2000/svg" xmlns:xlink="http://www.w3.org/1999/xlink" x="0px" y="0px"
	 viewBox="70.1 318.4 471.8 155.2" enable-background="new 70.1 318.4 471.8 155.2" xml:space="preserve">
<g>
	<g>
		<path fill="#222222" d="M70.7,368.1c-0.6-1.9-0.8-3.6-0.4-5.2c0.4-1.6,1.3-2.7,2.9-3.3l44.2-15.2c1.6-0.5,3-0.2,4.2,0.8
			c1.3,1.1,2.2,2.6,2.9,4.4c0.7,2,0.8,3.8,0.4,5.5c-0.4,1.6-1.3,2.7-2.9,3.2l-14.1,4.9L127,419c0.5,1.6,0.2,3.1-1.1,4.5
			c-1.3,1.4-3,2.5-5.2,3.2c-2.2,0.7-4.2,1-6.1,0.7c-1.9-0.3-3-1.3-3.6-2.9l-19.2-55.9l-14.1,4.9c-1.5,0.5-2.9,0.2-4.2-0.8
			C72.3,371.6,71.3,370.1,70.7,368.1z"/>
		<path fill="#222222" d="M170.5,406.4l-12.3-67.7c-0.3-1.6,0.3-3,1.8-4.2s3.3-1.9,5.6-2.4c2.2-0.4,4.3-0.4,6.1,0.2
			c1.8,0.5,2.9,1.6,3.1,3.3l4.7,26l21.2-3.8l-4.7-26c-0.3-1.6,0.3-3,1.8-4.2s3.3-1.9,5.6-2.4c2.2-0.4,4.3-0.4,6.1,0.2
			c1.8,0.5,2.9,1.6,3.1,3.3l12.3,67.7c0.3,1.6-0.3,3-1.8,4.2c-1.5,1.2-3.3,2-5.6,2.4c-2.2,0.4-4.3,0.3-6.1-0.2
			c-1.8-0.6-2.9-1.7-3.2-3.3l-5.2-28.8l-21.2,3.8l5.2,28.8c0.3,1.6-0.3,3-1.8,4.2c-1.5,1.2-3.3,2-5.6,2.4c-2.2,0.4-4.3,0.3-6.1-0.2
			C171.9,409.2,170.8,408.1,170.5,406.4z"/>
		<path fill="#222222" d="M258.3,393.2l-2.4-68.7c-0.1-1.4,0.4-2.6,1.3-3.6c0.9-1,2.2-1.6,3.7-1.6l22.3-0.8
			c17.7-0.6,26.8,6.8,27.4,22.2c0.4,11.2-3.7,18.7-12.3,22.4l14,23.4c0.4,0.5,0.6,1.2,0.6,1.9c0.1,2.1-1,4.1-3.2,6.1
			c-2.2,1.9-4.6,3-7.1,3c-2.5,0.1-4.4-0.9-5.5-2.9l-15.8-28.2l-7.1,0.2l0.9,26c0.1,1.6-0.7,3-2.4,3.9s-3.6,1.5-5.9,1.6
			c-2.3,0.1-4.3-0.3-6-1.2C259.2,396.1,258.3,394.9,258.3,393.2z M273.8,353.6l10.7-0.4c3.2-0.1,5.6-1,7.2-2.6
			c1.6-1.6,2.4-4.2,2.2-7.8c-0.2-3.6-1-6.1-2.7-7.6c-1.7-1.5-4.1-2.2-7.3-2.1l-10.7,0.4L273.8,353.6z"/>
		<path fill="#222222" d="M345.8,393.1l5.3-68.6c0.1-1.6,1-2.9,2.8-3.6c1.7-0.7,3.7-1,6-0.8c2.3,0.2,4.2,0.8,5.8,1.8
			s2.3,2.3,2.2,3.9l-5.3,68.5c-0.1,1.6-1,2.9-2.8,3.6c-1.7,0.8-3.7,1.1-6,0.9c-2.3-0.2-4.2-0.8-5.8-1.8
			C346.4,396.1,345.6,394.8,345.8,393.1z"/>
		<path fill="#222222" d="M401.6,330.9c0.4-1.8,1.8-3.2,4.4-4.1c2.6-0.9,5.1-1.1,7.5-0.7c3,0.6,4.7,1.9,4.9,4.1l4.4,57.3l25.3-51.7
			c1-1.9,3-2.6,6-2.1c2.5,0.5,4.7,1.6,6.8,3.4c2.1,1.8,2.9,3.6,2.6,5.5c-0.1,0.2-0.2,0.6-0.4,1.2l-32.2,61c-0.9,1.6-2.5,2.8-4.7,3.3
			c-2.2,0.5-4.6,0.6-7.2,0.1c-2.6-0.5-4.9-1.4-6.7-2.8c-1.8-1.3-2.9-3-3.1-4.9l-7.5-68.6C401.6,331.5,401.6,331.1,401.6,330.9z"/>
		<path fill="#222222" d="M471.4,414.5l22.4-64.9c0.5-1.6,1.6-2.6,3.3-2.9c1.6-0.4,3.5-0.2,5.3,0.4l36.4,12.6
			c1.6,0.5,2.5,1.6,2.9,3.3c0.4,1.6,0.2,3.4-0.4,5.2c-0.7,2-1.7,3.5-3,4.6c-1.3,1.1-2.7,1.3-4.2,0.8l-27.4-9.5l-6,17.3l15.4,5.3
			c1.5,0.5,2.5,1.5,2.9,3s0.4,3.2-0.2,4.9c-0.5,1.6-1.5,2.9-2.7,3.8c-1.2,1-2.7,1.2-4.2,0.6l-15.4-5.3l-6,17.4l27.4,9.5
			c1.5,0.5,2.4,1.6,2.9,3.3c0.4,1.6,0.2,3.5-0.4,5.5c-0.6,1.8-1.6,3.3-2.9,4.4c-1.3,1.1-2.7,1.3-4.2,0.8l-36.4-12.6
			c-1.9-0.7-3.4-1.6-4.5-3C471.1,417.4,470.8,416,471.4,414.5z"/>
	</g>
	<g>
		<path fill="#222222" d="M205.2,472.9c-0.3,0-0.7-0.1-1.3-0.1c-0.4-0.5-0.9-1.1-1.2-1.9c-0.4-0.9-0.6-1.7-0.8-2.6s-0.2-1.9-0.2-2.8
			s0.2-1.8,0.5-2.5c0,0,0.1-0.4,0.4-1c0.2-0.7,0.6-1.5,1-2.4s0.9-2.1,1.4-3.3c0.5-1.2,1-2.4,1.6-3.6c0.5-1.2,1-2.2,1.5-3.2
			c0.5-1,0.9-1.7,1.3-2.2c0.2-0.4,0.5-0.8,0.7-1.2s0.4-0.7,0.6-1c0.3-0.5,0.6-1,0.8-1.4c0.2-0.4,0.5-0.9,0.9-1.2
			c0.3-0.4,0.7-0.7,1-0.9c0.4-0.2,0.8-0.5,1.4-0.7c0.3,0.1,0.6,0.3,0.9,0.4c0.2,0.2,0.5,0.4,0.7,0.5l0.1,0.6
			c0.1,0.2,0.1,0.3,0.2,0.4c0.1,0.1,0.2,0.1,0.3,0.1c0.4,0.1,0.7,0.2,0.9,0.3c0.2,0.1,0.5,0.2,0.9,0.2c0.1,0.2,0.2,0.3,0.3,0.5
			c0.1,0.2,0.2,0.3,0.3,0.5c0.5,0.8,1,1.6,1.4,2.3c0.4,0.7,0.4,1.6,0,2.5l0.1,0.5c0.1,0.2,0.2,0.4,0.2,0.5c0,0.2,0,0.4-0.1,0.7
			c0,0.2-0.1,0.5-0.1,0.7c0,0.2,0,0.5,0.1,0.9l0.3,0.4c0.4,0.2,0.8,0.3,1.3,0.3c0.5,0,1-0.1,1.5-0.4c0.4-0.2,0.8-0.5,1.3-0.7
			c0.3-0.2,0.6-0.4,0.9-0.5c0.2-0.1,0.5-0.2,0.8-0.3c0.6-0.5,1.1-1,1.6-1.5s1-0.9,1.5-1.3c1-0.8,2-1.7,2.9-2.6
			c1-0.9,1.7-2.1,2.2-3.5c0.3-0.2,0.7-0.3,1-0.3s0.8,0.1,1.2,0.2c0.4,0.2,0.8,0.3,1.2,0.5c0.1,0.1,0.2,0.1,0.2,0.1
			c0.1,0,0.1,0.1,0.2,0.1c0,0.3,0.1,0.6,0.4,0.9c0.1,0.1,0.2,0.2,0.3,0.2s0.1,0.1,0.2,0.1c0.2,0.1,0.4,0.2,0.5,0.4
			c0.2,0.1,0.3,0.2,0.4,0.5c0.2,0.7,0.7,1.3,1.3,1.8c-0.1,0.3-0.1,0.6,0.1,0.9c0.1,0.3,0.2,0.6,0.3,0.9c0.1,0.1,0.1,0.2,0.1,0.3
			c0,0.1,0.1,0.2,0.1,0.4l-0.9-0.1l0.1,0.9c0.1,0.5,0.1,1-0.1,1.6c-0.2,0.6-0.3,1-0.5,1.4c0.1,0.9,0.1,1.5,0.1,2
			c0,0.5,0,0.9-0.1,1.3c-0.1,0.4-0.1,0.8-0.3,1.2c-0.2,0.4-0.3,0.8-0.5,1.2c0.1,2.1-0.1,4.1-0.7,5.8c-0.6,1.8-1.3,3.4-1.9,4.9
			c-0.1,0.2-0.2,0.4-0.2,0.5c-0.1,0.2-0.2,0.3-0.2,0.5c-0.3,0.1-0.6,0.2-0.8,0.3s-0.5,0.2-0.7,0.4c-0.3,0.2-0.6,0.4-0.9,0.5
			s-0.6,0.2-1,0.2c-1.3-1-2-2.7-2.1-5c-0.1-2.4,0.5-5.5,1.5-9.2c0.2-0.1,0.3-0.4,0.2-0.6v-0.5l-0.4-0.1c-0.1,0-0.2,0-0.4,0.1
			c-0.1,0-0.2,0.2-0.2,0.4c-0.9,0.7-1.9,1.3-2.9,2c-1,0.7-2.1,1.3-3.2,1.9c-1.1,0.5-2.2,1-3.4,1.4c-1.2,0.4-2.3,0.5-3.3,0.5
			c-2.8,0-4.9-1.4-6.3-4.2L213,458l-0.4,0.7c-0.1,0.1-0.2,0.4-0.4,0.8c-0.2,0.4-0.4,0.9-0.6,1.4c-0.2,0.5-0.4,1.1-0.5,1.6
			c-0.2,0.5-0.2,1-0.1,1.5c-0.3,0.3-0.7,0.7-1,1c-0.3,0.4-0.5,0.9-0.7,1.3c-0.1,0.1-0.1,0.2-0.1,0.4c0.1,0.1,0.1,0.2,0.1,0.4
			c0,0.2-0.1,0.4-0.2,0.4c-0.1,0.1-0.2,0.2-0.3,0.2c-0.1,0.1-0.3,0.3-0.4,0.4c-0.1,0.2-0.2,0.3-0.4,0.5c-0.1,0.2-0.1,0.4-0.1,0.5
			c-0.1,0.2-0.1,0.4-0.1,0.5c0,0.3-0.1,0.5-0.1,0.6c-0.3,0.6-0.5,1.1-0.7,1.5c-0.2,0.4-0.4,0.7-0.6,0.9c-0.2,0.2-0.4,0.3-0.6,0.4
			C205.7,472.9,205.5,472.9,205.2,472.9z"/>
		<path fill="#222222" d="M246.1,468.4l0.5-0.4l0.1-0.9c0.7-1.7,1.4-3.3,2.1-4.9c0.7-1.6,1.5-3.2,2.3-4.8c0.2-0.5,0.5-1,0.8-1.6
			c0.2-0.5,0.5-1.1,0.8-1.6c-0.1-0.1-0.1-0.2-0.1-0.4c0-0.1,0-0.2,0.1-0.4c0.4-0.5,0.7-1,0.9-1.5c0.2-0.4,0.5-0.9,0.7-1.4
			c0.2-0.5,0.5-1.1,0.8-1.7c0.3-0.5,0.7-1.1,1.1-1.6l0.3-0.4l0.5,0.1c0.1-0.1,0.2-0.1,0.4-0.1c0.1-0.1,0.3-0.1,0.5-0.1l0.7,0.1
			c0.9-0.4,1.8-1,2.4-1.8c0.7-0.8,1.4-1.8,2.1-2.9l0.5-0.7l0.7,0.4c0.1,0.1,0.4,0.2,0.7,0.2c0.3,0.1,0.6,0.2,1,0.3
			c0.6,0.1,1.2,0.3,1.7,0.5c0.5,0.2,1,0.4,1.3,0.7l0.2,0.4c0.1,0.3,0.1,0.6,0.1,0.9c0.1,0.2,0.1,0.5,0.1,0.7
			c0.1,0.6,0.2,1.2,0.3,1.7c0.1,0.5,0.1,1.2,0.2,1.9c0.1,0.5,0.3,1.1,0.4,1.7c0.1,0.5,0.2,1.2,0.4,1.7c0.1,0.8,0.3,1.6,0.4,2.3
			c0.2,0.7,0.4,1.5,0.7,2.1c0.3,0,0.4,0,0.5,0.1c0.3-0.1,0.7-0.2,1.2-0.2l0.5-0.1l0.2,0.5c0.1,0.1,0.1,0.2,0.2,0.2
			c0.1,0.1,0.2,0.2,0.3,0.2c0.4,0,0.8,0.1,1,0.3c0.2,0.2,0.4,0.3,0.5,0.4c0.1,0.1,0.1,0.1,0.2,0.2s0.2,0.1,0.2,0.1l0.7,0.3l-0.4,0.8
			c-0.3,0.6-0.8,1.2-1.4,1.7c-0.6,0.5-1.3,1-2.1,1.4c0.1,0.2,0.1,0.4,0.1,0.5c0,0.2,0.1,0.4,0.1,0.6c0.1,0.5,0.2,1.2,0.3,1.8
			c0.1,0.6,0.1,1.2,0,1.9c-0.3,0.7-0.6,1.4-1,1.9s-0.9,1.1-1.3,1.5c-0.5,0.5-1.1,0.9-1.8,1.2c-0.7,0.3-1.3,0.4-2,0.5
			c-0.4-0.1-0.7-0.2-0.8-0.3c-0.2-0.1-0.4-0.2-0.5-0.3c-0.2-0.2-0.4-0.3-0.5-0.3l-0.5-0.2l0.2-0.6c0.1-0.2,0.1-0.4,0-0.6
			c-0.1-0.2-0.3-0.4-0.6-0.7c-0.1-0.1-0.2-0.2-0.3-0.2c-0.1-0.1-0.2-0.2-0.3-0.3l-0.9-1l1.4-0.4c0.9-0.2,1.4-0.5,1.7-0.9
			c0.3-0.4,0.4-1,0.3-1.9c-0.7-0.1-1.3-0.2-1.7-0.1c-0.4,0.1-0.9,0.2-1.3,0.3c-0.7,0.2-1.3,0.3-1.9,0.4c-0.6,0.1-1.3,0.2-2,0.2
			c-0.5,0-1-0.1-1.5-0.1l-0.5-0.1l-0.1-0.5c0-0.1-0.1-0.1-0.1-0.2c-0.1-0.1-0.1-0.1-0.2-0.2c-0.1-0.2-0.3-0.4-0.5-0.7
			c-0.2-0.3-0.2-0.6-0.1-1c-0.2-0.3-0.3-0.6-0.3-1c-0.1,0.2-0.2,0.4-0.3,0.7c-0.1,0.2-0.1,0.4-0.2,0.6l-0.2,0.5l-0.5,0.1
			c-0.1,0.1-0.1,0.1-0.1,0.2c-0.1,0.1-0.1,0.2,0,0.2l0.2,0.5l-0.4,0.4c-0.1,0.1-0.1,0.2-0.2,0.2c-0.1,0.1-0.2,0.1-0.2,0.2
			c-0.1,0.3-0.1,0.6-0.2,0.9c-0.1,0.3-0.2,0.5-0.3,0.9c-0.1,0.4-0.3,0.9-0.4,1.3c-0.1,0.4-0.2,0.9-0.2,1.3l-0.2,0.5
			c-0.1,0.2-0.3,0.4-0.5,0.5c-0.2,0.1-0.4,0.2-0.6,0.3c-0.3,0.1-0.5,0.2-0.6,0.3l-0.1,0.5l-0.6,0.1c-0.4,0.1-0.6,0.1-0.8,0.2
			c-0.2,0-0.3,0.1-0.5,0.1l-0.5-0.1c-0.3-0.3-0.6-0.6-0.8-0.8c-0.2-0.2-0.4-0.4-0.7-0.5l-0.2-0.3c-0.1-0.2-0.2-0.4-0.2-0.6
			c0-0.2-0.1-0.4-0.1-0.5c-0.1-0.4-0.1-0.6-0.2-0.7L246.1,468.4z M259.5,457.5c-0.4,0.5-0.8,1.2-1.2,1.8c0.2,0,0.4-0.1,0.5-0.1
			s0.4,0,0.5-0.1c1-0.1,1.9-0.1,2.7-0.2s1.8-0.2,2.7-0.4c-0.2-1-0.5-2.1-0.7-3.2c-0.2-1.1-0.5-2.1-0.9-3.2l-0.2,0.4
			c-0.7,0.7-1.3,1.6-2,2.4C260.5,455.9,259.9,456.7,259.5,457.5L259.5,457.5z"/>
		<path fill="#222222" d="M283.5,468.7c-0.1,0-0.2-0.1-0.4-0.3c-0.1-0.2-0.2-0.5-0.4-0.7h0.4c-0.2-0.6-0.2-1.2-0.1-1.7
			c0.1-0.5,0.2-1,0.4-1.5c0.1-0.5,0.2-1,0.4-1.4c0.1-0.5,0.1-0.9-0.1-1.5c0.1,0.1,0.2,0.1,0.3-0.1c0.1-0.2,0.1-0.4,0.2-0.6
			c0.1-0.2,0.1-0.5,0.1-0.7c0-0.2-0.1-0.5-0.1-0.7c0.4-0.9,0.7-1.8,0.9-2.7c0.2-0.9,0.4-1.8,0.5-2.7c0.2-0.9,0.4-1.8,0.5-2.6
			c0.2-0.9,0.5-1.6,0.9-2.4c0.4-0.1,0.8,0,1.2,0.1c0.4,0.2,0.7,0.4,0.8,0.5c0.9-0.7,1.6-1.5,2.3-2.4c0.7-1,1.3-1.9,2-2.8
			c0.7-0.9,1.5-1.7,2.3-2.4c0.8-0.7,1.9-1.1,3.2-1.3c0.7,0.5,1.4,1,2.2,1.5s1.5,1.2,2.1,2c0.2,0.1,0.4,0.3,0.7,0.4
			c0.2,0.2,0.4,0.3,0.7,0.4v0.6c0.4,0.4,0.7,0.8,1,1.3c0.2,0.5,0.5,1,0.7,1.5c0.2,0.5,0.4,1.1,0.6,1.6c0.2,0.5,0.4,1.1,0.7,1.5
			c-0.1,0.2-0.1,0.3-0.1,0.4c0,0.1,0.1,0.2,0.1,0.4c0.1,0.1,0.1,0.2,0.1,0.4c0,0.2,0.1,0.4,0.1,0.5c-0.1,1.5-0.6,2.7-1.5,3.6
			c-0.8,0.9-1.9,1.6-3.1,2.2c-1.2,0.5-2.5,1-3.9,1.5c-1.3,0.4-2.6,0.9-3.7,1.3c0,0.1,0.1,0.2,0.2,0.2s0.2,0.1,0.1,0.2
			c0.9,0.5,1.5,0.9,1.9,1.2c0.5,0.3,0.9,0.5,1.3,0.8c0.4,0.2,0.9,0.4,1.3,0.5c0.5,0.1,1.2,0.3,2,0.5s1.5,0.4,2,0.5
			c0.5,0.1,0.9,0.2,1.3,0.3c0.4,0.1,0.8,0.1,1.3,0.2c0.4,0.1,1,0.1,1.8,0.2c0.3,0.3,0.5,0.7,0.7,1.1c0.2,0.4,0.3,0.9,0.4,1.3
			c0.1,0.4,0.1,0.8,0.1,1.2c-0.1,0.4-0.2,0.7-0.4,0.9c0,0.1,0.1,0.2,0.2,0.1c0.1,0,0.2,0,0.4,0c-0.2,0.1-0.4,0.3-0.5,0.5
			c-0.1,0.2-0.3,0.4-0.4,0.6c-0.1,0.2-0.3,0.4-0.5,0.5c-0.2,0.2-0.4,0.2-0.7,0.3c-1,0.4-2.3,0.4-3.8,0.1c-1.6-0.4-3.6-1-6-1.9
			c-1.2-0.4-2.2-0.9-2.9-1.2s-1.4-0.7-1.9-1.1c-0.5-0.4-1.1-0.7-1.5-1.2c-0.4-0.4-1-0.9-1.6-1.5c-0.1,0-0.1,0.1-0.1,0.2
			c0,0.1-0.1,0.1-0.1,0.2c-0.1,1.1-0.4,2-0.7,2.7c-0.3,0.7-0.7,1.4-1.3,2.1c-0.4-0.1-0.7-0.1-0.9,0.1c-0.2,0.2-0.4,0.3-0.5,0.5
			c-0.3,0.1-0.5,0.1-0.6,0s-0.2-0.1-0.4-0.2c-0.1-0.1-0.2-0.2-0.4-0.2c-0.1-0.1-0.4-0.1-0.7-0.1c-0.1-0.2-0.2-0.5-0.2-0.7
			c-0.1-0.2-0.3-0.4-0.7-0.3c0.1-0.2,0.1-0.5,0.1-0.7c-0.1-0.2-0.1-0.4-0.1-0.5c-0.1-0.1-0.1-0.3-0.1-0.5S283.5,469,283.5,468.7z
			 M297.5,449.7c-0.4,0.5-0.8,1-1.2,1.5c-0.4,0.4-0.8,0.9-1.3,1.3c-0.4,0.5-0.8,1-1.2,1.5c-0.3,0.5-0.5,1.2-0.7,1.9
			c1.2-0.1,2.4-0.5,3.7-1c1.3-0.5,2.5-1,3.6-1.5c-0.1-1-0.5-1.9-1.1-2.5C298.8,450.3,298.1,449.9,297.5,449.7z"/>
		<path fill="#222222" d="M316,464.7c0-0.1,0.1-0.2,0.1-0.2c0-0.1-0.1-0.1-0.1-0.2c-0.1-0.2,0-0.3,0.1-0.4s0.3-0.1,0.4-0.2
			c0.1-1.7,0.4-3.2,0.9-4.6c0.4-1.4,0.9-2.7,1.4-4c0.5-1.3,1-2.6,1.5-3.9c0.5-1.3,0.9-2.7,1.3-4.3c0.4-0.4,0.7-0.8,0.9-1.3
			c0.2-0.5,0.5-1,0.7-1.5c0.2-0.5,0.5-1,0.9-1.5c0.3-0.5,0.8-0.9,1.3-1.2c0.2,0,0.5,0.1,0.7,0.1c0.2,0.1,0.4,0.1,0.6,0.2
			c0.2,0.1,0.4,0.2,0.6,0.2c0.2,0.1,0.4,0.1,0.7,0.1c0.1,0.1,0.2,0.3,0.3,0.5c0.1,0.2,0.2,0.4,0.3,0.5l0.7-0.1
			c0.4,0.3,0.7,0.7,1,1.2c0.3,0.5,0.5,0.9,0.6,1.4c0.1,0.5,0.1,1-0.1,1.4c-0.1,0.5-0.5,0.8-1,1.1c0,0.2,0,0.3,0,0.4
			s-0.1,0.2-0.1,0.2c-0.1,0.1-0.1,0.1-0.1,0.2s0.1,0.2,0.2,0.2c-0.3,0.2-0.6,0.5-0.9,0.9c-0.2,0.4-0.5,0.8-0.6,1.2
			c-0.2,0.4-0.3,0.9-0.4,1.3c-0.1,0.4-0.2,0.8-0.2,1.2c0.8-0.9,1.8-1.6,2.9-2.4c1.1-0.7,2-1.4,2.9-2.1c0.7-0.4,1.2-0.9,1.7-1.3
			c0.5-0.4,1-0.8,1.5-1.2c0.5-0.4,1-0.7,1.6-1c0.5-0.3,1.1-0.7,1.6-1.1c0.3-0.1,0.5-0.1,0.7-0.1c0.2,0.1,0.3,0.1,0.4,0.2
			c0-0.2,0-0.3-0.1-0.4c-0.1-0.1-0.2-0.2-0.1-0.4c0.5-0.1,0.9-0.3,1.3-0.5c0.4-0.2,0.8-0.4,1.2-0.5c0.3,0.3,0.5,0.6,0.9,1
			c0.3,0.4,0.7,0.5,1.2,0.5c0.2,0.4,0.4,0.6,0.6,0.8c0.2,0.2,0.5,0.4,0.7,0.5c0.2,0.2,0.4,0.4,0.6,0.6c0.2,0.2,0.2,0.6,0.3,1.1
			c-0.1,0.2-0.2,0.5-0.4,0.7c-0.2,0.2-0.3,0.6-0.4,1c-0.7,0.6-1.3,1.2-2,1.6c-0.7,0.4-1.4,0.9-2.1,1.3c-0.7,0.4-1.5,0.9-2.2,1.3
			c-0.7,0.4-1.5,1-2.2,1.5c-0.2,0.2-0.4,0.5-0.6,0.7c-0.2,0.2-0.5,0.4-0.8,0.5c-0.2,0.2-0.5,0.4-0.7,0.5c-0.2,0.2-0.4,0.4-0.5,0.7
			c-0.1,0-0.2,0-0.3,0c-0.1,0-0.2,0.1-0.3,0.1c-0.1,0.2-0.3,0.4-0.5,0.5c-0.2,0.1-0.4,0.3-0.4,0.5c0.5,1.1,1.2,1.9,1.9,2.5
			c0.8,0.5,1.7,1,2.7,1.2c1,0.2,2.1,0.4,3.3,0.4c1.2,0,2.4,0.1,3.6,0.1c0.1,0,0.2-0.1,0.2-0.2c0-0.1,0.1-0.2,0.2-0.1
			c0.4,0.1,0.8,0.3,1,0.5c0.3,0.2,0.5,0.4,0.8,0.6c0.2,0.2,0.5,0.4,0.7,0.7c0.2,0.2,0.5,0.5,0.8,0.7c-0.1,1.3-0.4,2.4-1.2,3.2
			s-1.6,1.5-2.8,2c-1.6,0.1-3,0-4.2-0.1c-1.2-0.1-2.4-0.4-3.5-0.9c-0.1,0-0.2-0.1-0.2-0.2c-0.1-0.1-0.1-0.2-0.2-0.3
			c-0.2-0.1-0.5-0.2-0.7-0.2c-0.3,0-0.5,0-0.7-0.1c-0.2-0.1-0.7-0.4-1.2-0.7c-0.5-0.4-1.1-0.7-1.6-1.1c-0.6-0.5-1.2-0.9-1.7-1.4
			c-0.5-0.5-1-1-1.5-1.5c-0.1-0.1-0.2-0.2-0.4-0.2c-0.2,0-0.3-0.1-0.4-0.1c-1,0.6-1.8,1.4-2.4,2.2c-0.7,0.9-1.3,1.8-1.9,2.7
			c-0.6,0.9-1.3,1.8-1.9,2.6c-0.7,0.9-1.5,1.5-2.6,1.9c-0.3,0-0.5-0.1-0.8-0.1c-0.2-0.1-0.4-0.2-0.6-0.4c-0.2-0.2-0.4-0.3-0.6-0.4
			c-0.2-0.1-0.4-0.2-0.7-0.3c0-0.4-0.1-0.7-0.2-1.1c-0.2-0.4-0.3-0.7-0.5-1c-0.2-0.3-0.2-0.5-0.3-0.9c-0.1-0.3,0-0.5,0.2-0.9
			c-0.3-0.2-0.6-0.5-0.9-0.6c0.2-0.2,0.3-0.4,0.3-0.5c0-0.2-0.1-0.3-0.1-0.5c-0.1-0.2-0.1-0.4-0.2-0.5c-0.1-0.2,0-0.4,0.1-0.6
			c0.1,0,0.2-0.1,0.1-0.2C315.8,464.8,315.9,464.7,316,464.7z"/>
		<path fill="#222222" d="M356.6,470.9c-0.2-0.2-0.4-0.5-0.5-0.8c-0.1-0.3-0.3-0.5-0.7-0.7c-0.1-0.4-0.1-0.9-0.2-1.5
			c-0.1-0.5-0.2-1.1-0.3-1.7c-0.1-0.5-0.2-1.2-0.2-1.7c-0.1-0.5,0-1.1,0.1-1.6c0.1-0.2,0.1-0.5,0.3-0.7c0.1-0.2,0.2-0.4,0.4-0.7
			c0.1-0.2,0.2-0.4,0.3-0.7s0.1-0.4,0-0.7c0.2,0,0.3-0.1,0.3-0.2c0.1-0.2,0.2-0.2,0.4-0.1c0.2-0.6,0.4-1.2,0.6-1.7
			c0.2-0.5,0.4-1,0.7-1.5c0.2-0.5,0.5-1,0.8-1.5c0.2-0.5,0.5-1.1,0.7-1.8c-0.5-0.4-0.8-0.9-1-1.5c-0.2-0.5-0.4-1-0.5-1.6
			c-0.1-0.5-0.2-1.1-0.2-1.6c-0.1-0.5-0.2-1.1-0.3-1.6c0.3-0.5,0.7-0.9,1.2-1.2c0.5-0.3,1-0.6,1.6-0.8c0.5-0.2,1.2-0.4,1.9-0.5
			s1.4-0.2,2.1-0.4c1.3-0.4,2.6-0.7,3.6-1c1-0.2,2.1-0.4,3.1-0.6c1-0.2,2.1-0.3,3.2-0.4c1.1-0.1,2.3-0.3,3.8-0.5
			c0,0.1,0.1,0.1,0.1,0.1c0.1,0,0.2,0,0.2,0c0.1,0.2,0.2,0.3,0.4,0.3c0-0.1,0-0.2,0-0.2c0-0.1,0-0.1,0-0.2c0.1,0,0.1,0,0.2,0.1
			c0.1,0,0.2,0.1,0.2,0.1c0.1,0,0.1,0,0.2,0c0.1-0.1,0.1-0.1,0.1-0.2c0.4,0.6,0.8,1.1,1.3,1.5c0.5,0.4,1.1,0.7,1.8,1
			c0,0.2,0.1,0.4,0,0.5c0,0.1-0.1,0.2-0.1,0.3c0,0.1-0.1,0.2-0.1,0.3c0,0.1,0,0.3,0.1,0.5c-0.4,0.7-1,1.3-1.5,1.8
			c-0.5,0.4-1.2,0.7-1.8,1c-0.7,0.2-1.3,0.4-2,0.5c-0.7,0.1-1.5,0.2-2.2,0.4c-0.7,0.1-1.5,0.3-2.2,0.5c-0.7,0.2-1.5,0.5-2.2,1
			c-0.2-0.1-0.4-0.1-0.6-0.1c-0.2,0-0.4,0.1-0.5,0.1c-0.2,0.1-0.4,0.1-0.7,0.2c-0.2,0.1-0.5,0.1-0.9,0c-0.2,0.2-0.5,0.3-0.8,0.4
			c-0.3,0.1-0.6,0.2-0.9,0.2c0.1,0.3,0.2,0.6,0.2,0.9c0,0.3,0,0.5,0.1,0.8c1.2,0.1,2.5,0.1,3.9,0c1.4-0.1,2.8-0.2,4.2-0.2
			c0,0.1,0,0.2-0.1,0.3s-0.1,0.2-0.1,0.3c0.2,0.2,0.5,0.4,0.7,0.6c0.2,0.2,0.4,0.5,0.7,0.7c0.2,0.2,0.5,0.4,0.7,0.6
			c0.2,0.2,0.5,0.2,0.9,0.2c0.1,0.3,0.2,0.5,0.3,0.9c0.1,0.3,0,0.6-0.1,1c-0.5,0.4-1.1,0.7-1.6,1.1c-0.5,0.4-1.1,0.7-1.6,1
			s-1.2,0.5-1.9,0.7c-0.7,0.2-1.4,0.3-2.2,0.2c-0.1,0-0.2,0-0.4,0c-0.1,0-0.2-0.1-0.4-0.2c-0.3,0.1-0.7,0.2-1.1,0.1s-0.9,0-1.2,0.1
			c-0.4-0.1-0.9-0.2-1.3-0.2c-0.5,0-1-0.1-1.3-0.2c-0.5,0.7-1,1.5-1.4,2.3c-0.4,0.8-0.9,1.6-1.2,2.6c1.2,0.2,2.1,0.2,2.9,0.2
			c0.7,0,1.5-0.1,2.1-0.2c0.7-0.1,1.3-0.2,2.1-0.2c0.7-0.1,1.6-0.1,2.6-0.1c0.7-0.3,1.5-0.5,2.4-0.7c0.9-0.1,1.8-0.3,2.6-0.5
			c0.3,0.1,0.5,0.2,0.7,0.5c0.2,0.2,0.4,0.5,0.5,0.7c0.2,0.2,0.4,0.4,0.5,0.6c0.2,0.2,0.4,0.2,0.8,0.2c0.1,0.1,0.2,0.3,0.2,0.5
			c0.1,0.2,0.1,0.4,0.1,0.5c0.1,0.2,0.1,0.3,0.2,0.4c0.1,0.1,0.2,0.1,0.5,0.1c-0.5,1.1-1.1,1.9-1.8,2.5c-0.7,0.6-1.4,1-2.2,1.3
			c-0.9,0.3-1.8,0.5-2.7,0.7c-1,0.2-2.1,0.4-3.4,0.5c-0.3,0.1-0.5,0.1-0.8,0c-0.2-0.1-0.4-0.1-0.7-0.1c-0.8,0.1-1.7,0.3-2.8,0.4
			c-1.1,0.1-2.1,0.2-3.2,0.2c-1.1,0-2.1-0.2-3.2-0.4C358.2,472,357.3,471.5,356.6,470.9z"/>
		<path fill="#222222" d="M388,448.8c0-0.2-0.1-0.4-0.1-0.6c-0.1-0.2-0.1-0.4-0.2-0.6c-0.1-0.3-0.2-0.7-0.4-1.1
			c-0.1-0.4-0.2-0.9-0.2-1.4c0.1-0.3,0.1-0.5,0.2-0.6c0.1-0.1,0.2-0.2,0.2-0.3l0.2-0.7h0.6c0.2,0,0.4,0.1,0.7,0.1c0.2,0,0.5,0,0.7,0
			c1.1,0,2.1-0.1,3.3-0.1c1.1-0.1,2.2-0.2,3.4-0.3c1.3-0.2,2.7-0.3,4.1-0.4c0.1-0.3,0.2-0.5,0.3-0.6c0.1-0.1,0.1-0.2,0.1-0.3
			l0.4-0.2c0.7,0,1.1,0.1,1.3,0.2c0.2,0.2,0.4,0.4,0.6,0.5c0.7-0.1,1.5-0.1,2.2-0.2c0.7-0.1,1.5-0.2,2.3-0.3
			c1.1-0.1,2.2-0.3,3.4-0.4c1.2-0.1,2.2-0.2,3.3-0.2c0.5,0,0.9,0,1.3,0.1c0.4,0,0.8,0.1,1.2,0.1l0.5,0.4c0.1,0.2,0.2,0.4,0.4,0.5
			s0.4,0.3,0.6,0.5c0.4,0.3,0.9,0.7,1.2,1.3c0.4,0.5,0.5,1.2,0.4,2.2l-0.2,0.4c-0.1,0.1-0.2,0.2-0.4,0.3l-0.4,0.5h-0.4
			c-0.3,0-0.5,0-0.6,0.1s-0.3,0.1-0.5,0.2c-0.1,0.1-0.2,0.1-0.4,0.1c-0.1,0.1-0.3,0.1-0.4,0.1c-0.3,0-0.5-0.1-0.7-0.1
			c-0.2,0-0.4,0-0.6,0c-0.9,0-1.8,0.1-2.7,0.2c-1,0.1-1.9,0.2-2.9,0.4c-0.7,0.1-1.3,0.2-1.9,0.2c-0.6,0.1-1.2,0.1-1.6,0.2
			c-0.3,0.7-0.5,1.3-0.8,1.9c-0.2,0.5-0.4,1.1-0.7,1.7c-0.2,0.5-0.5,1.1-0.7,1.7c-0.2,0.5-0.4,1.2-0.6,1.9c-0.3,0.5-0.6,1-0.9,1.5
			c-0.2,0.5-0.4,1-0.5,1.6c-0.4,0.5-0.7,1-0.9,1.5s-0.3,1-0.5,1.4l-0.2,0.6c-0.2,0.2-0.3,0.4-0.4,0.5c-0.1,0.1-0.1,0.2-0.2,0.4
			c-0.1,0.4-0.2,0.7-0.3,1c-0.1,0.1-0.1,0.3-0.2,0.4c-0.1,0.2-0.1,0.2-0.1,0.4c-0.1,0.3-0.1,0.5-0.2,0.7c0,0.2,0,0.3-0.1,0.5
			c0,0.2-0.1,0.3-0.1,0.5c-0.1,0.2-0.1,0.4-0.1,0.5c0,0.2,0,0.3,0.1,0.4c0.1,0.1,0.2,0.2,0.2,0.3c0.1,0.1,0.1,0.2,0.2,0.4
			c0.1,0.1,0.1,0.1,0.2,0.1c0.1,0,0.1,0.1,0.2,0.1c0.2,0.2,0.4,0.3,0.6,0.3l0.4,0.5c0.2,1,0,1.8-0.4,2.3c-0.5,0.7-1.3,1-2.5,1
			l-0.6-0.1c-0.2-0.2-0.3-0.3-0.3-0.4c-0.2-0.1-0.5-0.2-0.6-0.3c-0.2-0.1-0.3-0.2-0.5-0.4c-0.1-0.1-0.1-0.1-0.2-0.1
			c-0.1,0-0.2-0.1-0.2-0.1c-0.3-0.1-0.5-0.2-0.7-0.3l-0.4-0.2c0-0.3,0.1-0.5,0.1-0.6c-0.2-0.3-0.4-0.7-0.5-1
			c-0.1-0.4-0.2-0.7-0.3-1.2c-0.1-0.3-0.2-0.6-0.2-0.9c-0.1-0.2-0.2-0.5-0.3-0.7c-0.1-1.9,0.1-3.6,0.5-4.9c0.4-1.3,0.9-2.6,1.4-3.9
			c0.3-0.7,0.5-1.3,0.8-2.1c0.2-0.7,0.5-1.4,0.7-2.1l0.4-0.5c0.2-0.2,0.3-0.2,0.4-0.3c0-0.4,0.1-0.7,0.2-1.1
			c0.1-0.4,0.3-0.7,0.5-1.1c0.1-0.2,0.2-0.4,0.3-0.7c0.1-0.2,0.2-0.4,0.2-0.6c-0.2,0-0.4,0-0.5,0c-0.1,0-0.3,0.1-0.5,0.1
			c-0.4,0.1-0.7,0.1-1,0.1c-0.2,0-0.4,0-0.5-0.1c-0.2,0.1-0.4,0.2-0.6,0.2c-0.2,0-0.4,0-0.6,0h-0.5h-0.4c-0.3,0-0.6,0.1-0.8,0.1
			c-0.4,0-0.7,0-0.8,0s-0.2,0-0.4,0h-0.5h-0.5c-0.2,0-0.5,0-0.7-0.1c-0.3-0.1-0.5-0.1-0.9-0.3l-0.3-0.4c-0.2-0.3-0.3-0.5-0.4-0.5
			l-0.5-0.1L388,448.8L388,448.8z"/>
	</g>
	<g>
		<g>
			<g>
				<path fill="#222222" d="M181.8,460.5c-1.4,0.1-3,0.2-4.7,0.4c-1.8,0.1-3.6,0.1-5.6,0.2c-1.9,0-3.9,0-6-0.1
					c-2.1-0.1-4-0.1-5.9-0.3c-1.9-0.1-3.7-0.3-5.3-0.5c-1.6-0.2-3.1-0.5-4.3-0.9c-0.2-0.2-0.2-0.6-0.1-0.9c0.1-0.4,0.2-0.7,0.4-1.1
					c0.2-0.4,0.3-0.7,0.4-1.1c0.1-0.4,0.1-0.7-0.1-1c1.5-0.2,3.1-0.4,4.9-0.5s3.6-0.2,5.4-0.2c1.9-0.1,3.8-0.1,5.8-0.1
					c1.9,0,3.9-0.1,5.8-0.1c1.9-0.1,3.8-0.1,5.6-0.2c1.8-0.1,3.5-0.2,5.1-0.5L181.8,460.5z"/>
			</g>
		</g>
		<g>
			<g>
				<path fill="#222222" d="M460.9,460.5c-1.4,0.1-3,0.2-4.7,0.4c-1.8,0.1-3.6,0.1-5.6,0.2c-1.9,0-3.9,0-6-0.1s-4-0.1-6-0.3
					c-1.9-0.1-3.7-0.3-5.3-0.5c-1.6-0.2-3.1-0.5-4.3-0.9c-0.2-0.2-0.2-0.6-0.1-0.9c0.1-0.4,0.2-0.7,0.4-1.1c0.2-0.4,0.3-0.7,0.4-1.1
					c0.1-0.4,0.1-0.7-0.1-1c1.5-0.2,3.1-0.4,4.9-0.5c1.8-0.1,3.6-0.2,5.4-0.2c1.9-0.1,3.8-0.1,5.8-0.1c1.9,0,3.9-0.1,5.8-0.1
					c1.9-0.1,3.8-0.1,5.6-0.2c1.8-0.1,3.5-0.2,5.1-0.5L460.9,460.5z"/>
			</g>
		</g>
	</g>
</g>
</svg>
