<?xml version="1.0" encoding="utf-8"?>
<!-- Generator: Adobe Illustrator 17.1.0, SVG Export Plug-In . SVG Version: 6.00 Build 0)  -->
<!DOCTYPE svg PUBLIC "-//W3C//DTD SVG 1.1//EN" "http://www.w3.org/Graphics/SVG/1.1/DTD/svg11.dtd">
<svg version="1.1" id="Layer_1" xmlns="http://www.w3.org/2000/svg" xmlns:xlink="http://www.w3.org/1999/xlink" x="0px" y="0px"
	 viewBox="0 0 110 110" enable-background="new 0 0 110 110" xml:space="preserve">
<circle fill="#FFFFFF" stroke="#9e998f" stroke-width="2" stroke-linecap="round" stroke-linejoin="round" stroke-miterlimit="10" cx="55" cy="55" r="50"/>
<g>
	<path fill="none" stroke="#9e998f" stroke-width="2" stroke-linecap="round" stroke-linejoin="round" stroke-miterlimit="10" d="
		M58.5,36.1c-1.2,0.7-2.4,1.6-3.5,2.9c-1.1-1.3-2.3-2.2-3.5-2.9c-2.1-1.2-4.1-1.4-5.8-0.4v0.4v30.8c0,4.9,5.6,8.9,9.4,8.9h-0.3
		c3.8,0,9.4-4,9.4-8.9V36.1v-0.4C62.6,34.7,60.5,34.9,58.5,36.1z"/>
	<path fill="none" stroke="#9e998f" stroke-width="2" stroke-linecap="round" stroke-linejoin="round" stroke-miterlimit="10" d="
		M59.7,30c0,4.4-4.7,8-4.7,8s-4.7-3.6-4.7-8s4.7-8,4.7-8S59.7,25.6,59.7,30z"/>
	<path fill="none" stroke="#9e998f" stroke-width="2" stroke-linecap="round" stroke-linejoin="round" stroke-miterlimit="10" d="
		M68.6,43.6c-2.5-1.5-5.5-1.2-8.6,0.5c-1.7,1-3.5,2.4-5.1,4.3c-1.6-1.9-3.4-3.3-5.1-4.3c-3.1-1.8-6.1-2-8.6-0.5"/>
	<path fill="none" stroke="#9e998f" stroke-width="2" stroke-linecap="round" stroke-linejoin="round" stroke-miterlimit="10" d="
		M68.6,53.6c-2.5-1.5-5.5-1.2-8.6,0.5c-1.7,1-3.5,2.4-5.1,4.3c-1.6-1.9-3.4-3.3-5.1-4.3c-3.1-1.8-6.1-2-8.6-0.5"/>
	<path fill="none" stroke="#9e998f" stroke-width="2" stroke-linecap="round" stroke-linejoin="round" stroke-miterlimit="10" d="
		M68.6,63.6c-2.5-1.5-5.5-1.2-8.6,0.5c-1.7,1-3.5,2.4-5.1,4.3c-1.6-1.9-3.4-3.3-5.1-4.3c-3.1-1.8-6.1-2-8.6-0.5"/>
	
		<line fill="none" stroke="#9e998f" stroke-width="2" stroke-linecap="round" stroke-linejoin="round" stroke-miterlimit="10" x1="55" y1="38.8" x2="55" y2="105"/>
</g>
<g>
	
		<polyline fill="none" stroke="#9e998f" stroke-width="2" stroke-linecap="round" stroke-linejoin="round" stroke-miterlimit="10" points="
		74.8,37.9 91.1,21.6 74.8,37.9 	"/>
	
		<polyline fill="none" stroke="#9e998f" stroke-width="2" stroke-linecap="round" stroke-linejoin="round" stroke-miterlimit="10" points="
		74.8,32.5 88.4,18.9 74.8,32.5 	"/>
	
		<polyline fill="none" stroke="#9e998f" stroke-width="2" stroke-linecap="round" stroke-linejoin="round" stroke-miterlimit="10" points="
		35.2,72.1 18.9,88.4 35.2,72.1 	"/>
	
		<polyline fill="none" stroke="#9e998f" stroke-width="2" stroke-linecap="round" stroke-linejoin="round" stroke-miterlimit="10" points="
		35.2,77.5 21.6,91.1 35.2,77.5 	"/>
</g>
</svg>
