<?xml version="1.0" encoding="utf-8"?>
<!-- Generator: Adobe Illustrator 17.1.0, SVG Export Plug-In . SVG Version: 6.00 Build 0)  -->
<!DOCTYPE svg PUBLIC "-//W3C//DTD SVG 1.1//EN" "http://www.w3.org/Graphics/SVG/1.1/DTD/svg11.dtd">
<svg version="1.1" id="Layer_1" xmlns="http://www.w3.org/2000/svg" xmlns:xlink="http://www.w3.org/1999/xlink" x="0px" y="0px"
	 viewBox="0 0 110 110" enable-background="new 0 0 110 110" xml:space="preserve">
<circle fill="#FFFFFF" stroke="#9e998f" stroke-width="2" stroke-linecap="round" stroke-linejoin="round" stroke-miterlimit="10" cx="55" cy="55" r="50"/>
<g>
	<g>
		<path fill="none" stroke="#9e998f" stroke-width="2" stroke-linecap="round" stroke-linejoin="round" stroke-miterlimit="10" d="
			M68.3,44.4C68.3,56.5,55,66.3,55,66.3s-13.3-9.8-13.3-21.9S55,22.6,55,22.6S68.3,32.4,68.3,44.4z"/>
		
			<line fill="none" stroke="#9e998f" stroke-width="2" stroke-linecap="round" stroke-linejoin="round" stroke-miterlimit="10" x1="55" y1="22.6" x2="55" y2="65.6"/>
		
			<polyline fill="none" stroke="#9e998f" stroke-width="2" stroke-linecap="round" stroke-linejoin="round" stroke-miterlimit="10" points="
			64.2,33.1 55,42.5 45.8,33.1 		"/>
		
			<polyline fill="none" stroke="#9e998f" stroke-width="2" stroke-linecap="round" stroke-linejoin="round" stroke-miterlimit="10" points="
			68.1,42.2 55,55.5 41.9,42.2 		"/>
	</g>
	<g>
		<g>
			<path fill="none" stroke="#9e998f" stroke-width="2" stroke-linecap="round" stroke-linejoin="round" stroke-miterlimit="10" d="
				M38.1,64c7,0,12.6,7.7,12.6,7.7s-5.7,7.7-12.6,7.7s-12.6-7.7-12.6-7.7S31.1,64,38.1,64z"/>
			
				<line fill="none" stroke="#9e998f" stroke-width="2" stroke-linecap="round" stroke-linejoin="round" stroke-miterlimit="10" x1="25.5" y1="71.7" x2="50.3" y2="71.7"/>
			
				<polyline fill="none" stroke="#9e998f" stroke-width="2" stroke-linecap="round" stroke-linejoin="round" stroke-miterlimit="10" points="
				31.5,66.4 37,71.7 31.5,77.1 			"/>
			
				<polyline fill="none" stroke="#9e998f" stroke-width="2" stroke-linecap="round" stroke-linejoin="round" stroke-miterlimit="10" points="
				36.8,64.2 44.5,71.7 36.8,79.3 			"/>
		</g>
		<g>
			<path fill="none" stroke="#9e998f" stroke-width="2" stroke-linecap="round" stroke-linejoin="round" stroke-miterlimit="10" d="
				M71.9,79.4c-7,0-12.6-7.7-12.6-7.7S64.9,64,71.9,64s12.6,7.7,12.6,7.7S78.9,79.4,71.9,79.4z"/>
			
				<line fill="none" stroke="#9e998f" stroke-width="2" stroke-linecap="round" stroke-linejoin="round" stroke-miterlimit="10" x1="84.5" y1="71.7" x2="59.7" y2="71.7"/>
			
				<polyline fill="none" stroke="#9e998f" stroke-width="2" stroke-linecap="round" stroke-linejoin="round" stroke-miterlimit="10" points="
				78.5,77.1 73,71.7 78.5,66.4 			"/>
			
				<polyline fill="none" stroke="#9e998f" stroke-width="2" stroke-linecap="round" stroke-linejoin="round" stroke-miterlimit="10" points="
				73.2,79.3 65.5,71.7 73.2,64.2 			"/>
		</g>
	</g>
</g>
</svg>
