<?xml version="1.0" encoding="utf-8"?>
<!-- Generator: Adobe Illustrator 17.1.0, SVG Export Plug-In . SVG Version: 6.00 Build 0)  -->
<!DOCTYPE svg PUBLIC "-//W3C//DTD SVG 1.1//EN" "http://www.w3.org/Graphics/SVG/1.1/DTD/svg11.dtd">
<svg version="1.1" id="Layer_1" xmlns="http://www.w3.org/2000/svg" xmlns:xlink="http://www.w3.org/1999/xlink" x="0px" y="0px"
	 viewBox="0 0 110 110" enable-background="new 0 0 110 110" xml:space="preserve">
<circle fill="#FFFFFF" stroke="#9e998f" stroke-width="2" stroke-linecap="round" stroke-linejoin="round" stroke-miterlimit="10" cx="55" cy="55" r="50"/>
<g>
	<path fill="none" stroke="#9e998f" stroke-width="2" stroke-linecap="round" stroke-linejoin="round" stroke-miterlimit="10" d="
		M68.1,62.8c-11.3,11.3-33,15.6-38.4,17.5c1.9-5.4,6.2-27.1,17.5-38.4c7.7-7.7,13.9-4.6,19.7,1.2S75.8,55.1,68.1,62.8z"/>
	
		<rect x="71.2" y="27" transform="matrix(0.7071 0.7071 -0.7071 0.7071 47.2429 -41.5091)" fill="none" stroke="#9e998f" stroke-width="2" stroke-linecap="round" stroke-miterlimit="10" width="5" height="18.5"/>
	
		<line fill="none" stroke="#9e998f" stroke-width="2" stroke-linecap="round" stroke-linejoin="round" stroke-miterlimit="10" x1="50.7" y1="39.7" x2="56.2" y2="45.2"/>
	
		<line fill="none" stroke="#9e998f" stroke-width="2" stroke-linecap="round" stroke-linejoin="round" stroke-miterlimit="10" x1="68.1" y1="62.6" x2="58.5" y2="52.9"/>
	
		<line fill="none" stroke="#9e998f" stroke-width="2" stroke-linecap="round" stroke-linejoin="round" stroke-miterlimit="10" x1="65.1" y1="65.2" x2="59.4" y2="59.5"/>
	
		<line fill="none" stroke="#9e998f" stroke-width="2" stroke-linecap="round" stroke-linejoin="round" stroke-miterlimit="10" x1="38.8" y1="54.4" x2="48" y2="63.5"/>
	
		<line fill="none" stroke="#9e998f" stroke-width="2" stroke-linecap="round" stroke-linejoin="round" stroke-miterlimit="10" x1="41" y1="51.2" x2="44.7" y2="54.9"/>
	
		<line fill="none" stroke="#9e998f" stroke-width="2" stroke-linecap="round" stroke-linejoin="round" stroke-miterlimit="10" x1="50.1" y1="73.8" x2="47.3" y2="71"/>
	
		<line fill="none" stroke="#9e998f" stroke-width="2" stroke-linecap="round" stroke-linejoin="round" stroke-miterlimit="10" x1="33.1" y1="68.7" x2="37.2" y2="72.9"/>
	<g>
		
			<rect x="62.8" y="27.8" transform="matrix(0.8891 0.4577 -0.4577 0.8891 22.7077 -26.1107)" fill="none" stroke="#9e998f" stroke-width="2" stroke-linecap="round" stroke-miterlimit="10" width="5" height="12"/>
		
			<rect x="73.7" y="38.8" transform="matrix(0.4577 0.8891 -0.8891 0.4577 81.1207 -43.4713)" fill="none" stroke="#9e998f" stroke-width="2" stroke-linecap="round" stroke-miterlimit="10" width="5" height="12"/>
	</g>
</g>
</svg>
