<?xml version="1.0" encoding="utf-8"?>
<!-- Generator: Adobe Illustrator 17.1.0, SVG Export Plug-In . SVG Version: 6.00 Build 0)  -->
<!DOCTYPE svg PUBLIC "-//W3C//DTD SVG 1.1//EN" "http://www.w3.org/Graphics/SVG/1.1/DTD/svg11.dtd">
<svg version="1.1" id="Layer_1" xmlns="http://www.w3.org/2000/svg" xmlns:xlink="http://www.w3.org/1999/xlink" x="0px" y="0px"
	 viewBox="0 0 110 110" enable-background="new 0 0 110 110" xml:space="preserve">
<circle fill="#FFFFFF" stroke="#9e998f" stroke-width="2" stroke-linecap="round" stroke-linejoin="round" stroke-miterlimit="10" cx="55" cy="55" r="50"/>
<g>
	<path fill="none" stroke="#9e998f" stroke-width="1.3" stroke-linecap="round" stroke-linejoin="round" stroke-miterlimit="10" d="
		M24.3,55L24.3,55c0-4.6,3.2-8.9,8.4-8.9c2.6,0,4.2,0.8,5.9,2.2l-0.3,0.4c-1.6-1.3-3.2-2.1-5.6-2.1c-4.8,0-7.9,4.1-7.9,8.3v0
		c0,4.4,2.9,8.3,7.9,8.3c2.5,0,4.6-1.1,6.1-2.3v-5.5h-6.3V55h6.8v6.2c-1.6,1.5-3.9,2.6-6.6,2.6C27.4,63.8,24.3,59.8,24.3,55z"/>
	<path fill="none" stroke="#9e998f" stroke-width="1.3" stroke-linecap="round" stroke-linejoin="round" stroke-miterlimit="10" d="
		M46.5,46.5h0.5L54.5,57l7.4-10.6h0.5v17.1h-0.5V47.4l-7.4,10.5h0l-7.4-10.5v16.2h-0.5V46.5z"/>
	<path fill="none" stroke="#9e998f" stroke-width="1.3" stroke-linecap="round" stroke-linejoin="round" stroke-miterlimit="10" d="
		M68.7,55L68.7,55c0-4.7,3.3-8.9,8.5-8.9c5.2,0,8.5,4.1,8.5,8.8v0c0,4.7-3.3,8.8-8.5,8.8C72,63.8,68.7,59.7,68.7,55z M85.1,55
		L85.1,55c0-4.4-3.2-8.4-8-8.4c-4.8,0-7.9,3.9-7.9,8.3v0c0,4.4,3.2,8.3,8,8.3C82,63.3,85.1,59.4,85.1,55z"/>
</g>
<g>
	
		<polyline fill="none" stroke="#9e998f" stroke-width="2" stroke-linecap="round" stroke-linejoin="round" stroke-miterlimit="10" points="
		74.8,37.9 91.1,21.6 74.8,37.9 	"/>
	
		<polyline fill="none" stroke="#9e998f" stroke-width="2" stroke-linecap="round" stroke-linejoin="round" stroke-miterlimit="10" points="
		74.8,32.5 88.4,18.9 74.8,32.5 	"/>
	
		<polyline fill="none" stroke="#9e998f" stroke-width="2" stroke-linecap="round" stroke-linejoin="round" stroke-miterlimit="10" points="
		35.2,72.1 18.9,88.4 35.2,72.1 	"/>
	
		<polyline fill="none" stroke="#9e998f" stroke-width="2" stroke-linecap="round" stroke-linejoin="round" stroke-miterlimit="10" points="
		35.2,77.5 21.6,91.1 35.2,77.5 	"/>
</g>
</svg>
