<?xml version="1.0" encoding="utf-8"?>
<!-- Generator: Adobe Illustrator 17.1.0, SVG Export Plug-In . SVG Version: 6.00 Build 0)  -->
<!DOCTYPE svg PUBLIC "-//W3C//DTD SVG 1.1//EN" "http://www.w3.org/Graphics/SVG/1.1/DTD/svg11.dtd">
<svg version="1.1" id="Layer_1" xmlns="http://www.w3.org/2000/svg" xmlns:xlink="http://www.w3.org/1999/xlink" x="0px" y="0px"
	 viewBox="0 0 110 110" enable-background="new 0 0 110 110" xml:space="preserve">
<circle fill="#FFFFFF" stroke="#9e998f" stroke-width="2" stroke-linecap="round" stroke-linejoin="round" stroke-miterlimit="10" cx="55" cy="55" r="50"/>
<g>
	<g>
		
			<line fill="none" stroke="#9e998f" stroke-width="2" stroke-linecap="round" stroke-linejoin="round" stroke-miterlimit="10" x1="78.7" y1="32" x2="44.7" y2="66"/>
		
			<polygon fill="none" stroke="#9e998f" stroke-width="2" stroke-linecap="round" stroke-linejoin="round" stroke-miterlimit="10" points="
			36.4,80.8 35.8,74.9 29.9,74.3 38.8,65.4 44.7,66 45.3,71.9 		"/>
		
			<polygon fill="none" stroke="#9e998f" stroke-width="2" stroke-linecap="round" stroke-linejoin="round" stroke-miterlimit="10" points="
			79.4,31.3 80.1,39 66.4,52.8 62.1,48.5 		"/>
	</g>
	<g>
		<path fill="none" stroke="#9e998f" stroke-width="2" stroke-linecap="round" stroke-linejoin="round" stroke-miterlimit="10" d="
			M37.7,29.2l6.6,6.6c2.2,2.2,2.2,5.7,0,7.9l-0.7,0.7c-2.2,2.2-5.7,2.2-7.9,0l-6.6-6.6"/>
		
			<line fill="none" stroke="#9e998f" stroke-width="2" stroke-linecap="round" stroke-linejoin="round" stroke-miterlimit="10" x1="44" y1="44" x2="33.5" y2="33.5"/>
		
			<line fill="none" stroke="#9e998f" stroke-width="2" stroke-linecap="round" stroke-linejoin="round" stroke-miterlimit="10" x1="42" y1="42" x2="66.1" y2="66.1"/>
		
			<polygon fill="none" stroke="#9e998f" stroke-width="2" stroke-linecap="round" stroke-linejoin="round" stroke-miterlimit="10" points="
			80.8,74.3 74.9,74.9 74.3,80.8 65.4,71.9 66,66 71.9,65.4 		"/>
	</g>
</g>
</svg>
