<?xml version="1.0" encoding="utf-8"?>
<!-- Generator: Adobe Illustrator 17.1.0, SVG Export Plug-In . SVG Version: 6.00 Build 0)  -->
<!DOCTYPE svg PUBLIC "-//W3C//DTD SVG 1.1//EN" "http://www.w3.org/Graphics/SVG/1.1/DTD/svg11.dtd">
<svg version="1.1" id="Layer_1" xmlns="http://www.w3.org/2000/svg" xmlns:xlink="http://www.w3.org/1999/xlink" x="0px" y="0px"
	 viewBox="0 0 110 110" enable-background="new 0 0 110 110" xml:space="preserve">
<circle fill="#FFFFFF" stroke="#9e998f" stroke-width="2" stroke-linecap="round" stroke-linejoin="round" stroke-miterlimit="10" cx="55" cy="55" r="50"/>
<g>
	<g>
		<path fill="none" stroke="#9e998f" stroke-width="2" stroke-linecap="round" stroke-linejoin="round" stroke-miterlimit="10" d="
			M66.4,61.3C66.4,71.7,55,80.1,55,80.1s-11.4-8.4-11.4-18.8S55,42.5,55,42.5S66.4,50.9,66.4,61.3z"/>
		
			<line fill="none" stroke="#9e998f" stroke-width="2" stroke-linecap="round" stroke-linejoin="round" stroke-miterlimit="10" x1="55" y1="42.5" x2="55" y2="79.5"/>
		
			<polyline fill="none" stroke="#9e998f" stroke-width="2" stroke-linecap="round" stroke-linejoin="round" stroke-miterlimit="10" points="
			62.9,51.6 55,59.6 47.1,51.6 		"/>
		
			<polyline fill="none" stroke="#9e998f" stroke-width="2" stroke-linecap="round" stroke-linejoin="round" stroke-miterlimit="10" points="
			66.2,59.4 55,70.8 43.8,59.4 		"/>
	</g>
	<g>
		
			<line fill="none" stroke="#9e998f" stroke-width="2" stroke-linecap="round" stroke-linejoin="round" stroke-miterlimit="10" x1="55" y1="25.3" x2="55" y2="21.8"/>
		
			<line fill="none" stroke="#9e998f" stroke-width="2" stroke-linecap="round" stroke-linejoin="round" stroke-miterlimit="10" x1="55" y1="35.4" x2="55" y2="28.8"/>
		
			<line fill="none" stroke="#9e998f" stroke-width="2" stroke-linecap="round" stroke-linejoin="round" stroke-miterlimit="10" x1="64.4" y1="27.7" x2="66.3" y2="24.8"/>
		
			<line fill="none" stroke="#9e998f" stroke-width="2" stroke-linecap="round" stroke-linejoin="round" stroke-miterlimit="10" x1="58.9" y1="36.2" x2="62.5" y2="30.7"/>
		
			<line fill="none" stroke="#9e998f" stroke-width="2" stroke-linecap="round" stroke-linejoin="round" stroke-miterlimit="10" x1="70.8" y1="33.6" x2="73.9" y2="32"/>
		
			<line fill="none" stroke="#9e998f" stroke-width="2" stroke-linecap="round" stroke-linejoin="round" stroke-miterlimit="10" x1="61.8" y1="38.3" x2="67.7" y2="35.3"/>
		
			<line fill="none" stroke="#9e998f" stroke-width="2" stroke-linecap="round" stroke-linejoin="round" stroke-miterlimit="10" x1="45.6" y1="27.7" x2="43.7" y2="24.8"/>
		
			<line fill="none" stroke="#9e998f" stroke-width="2" stroke-linecap="round" stroke-linejoin="round" stroke-miterlimit="10" x1="51.1" y1="36.2" x2="47.5" y2="30.7"/>
		
			<line fill="none" stroke="#9e998f" stroke-width="2" stroke-linecap="round" stroke-linejoin="round" stroke-miterlimit="10" x1="39.2" y1="33.6" x2="36.1" y2="32"/>
		
			<line fill="none" stroke="#9e998f" stroke-width="2" stroke-linecap="round" stroke-linejoin="round" stroke-miterlimit="10" x1="48.3" y1="38.3" x2="42.3" y2="35.3"/>
	</g>
	<g>
		<g>
			
				<line fill="none" stroke="#9e998f" stroke-width="2" stroke-linecap="round" stroke-linejoin="round" stroke-miterlimit="10" x1="80" y1="82.2" x2="30" y2="82.2"/>
			<g>
				
					<line fill="none" stroke="#9e998f" stroke-width="2" stroke-linecap="round" stroke-linejoin="round" stroke-miterlimit="10" x1="55" y1="82.2" x2="74.5" y2="72.1"/>
				
					<line fill="none" stroke="#9e998f" stroke-width="2" stroke-linecap="round" stroke-linejoin="round" stroke-miterlimit="10" x1="55" y1="82.2" x2="35.5" y2="72.1"/>
			</g>
		</g>
	</g>
</g>
</svg>
