<?xml version="1.0" encoding="utf-8"?>
<!-- Generator: Adobe Illustrator 18.1.1, SVG Export Plug-In . SVG Version: 6.00 Build 0)  -->
<!DOCTYPE svg PUBLIC "-//W3C//DTD SVG 1.1//EN" "http://www.w3.org/Graphics/SVG/1.1/DTD/svg11.dtd">
<svg version="1.1" id="Laag_1" xmlns="http://www.w3.org/2000/svg" xmlns:xlink="http://www.w3.org/1999/xlink" x="0px" y="0px"
	 viewBox="464 264 32 32" enable-background="new 464 264 32 32" xml:space="preserve">
<g>
	<polygon fill="#007398" points="486.2,278.8 486.2,276.4 485,276.4 485,278.8 482.6,278.8 482.6,280 485,280 485,282.3 
		486.2,282.3 486.2,280 488.5,280 488.5,278.8 	"/>
	<path fill="#007398" d="M480.1,281l-0.9-0.7c-0.3-0.2-0.6-0.5-0.6-1s0.4-0.8,0.7-1.2c1-0.8,2-1.6,2-3.3c0-1.8-1.1-2.7-1.6-3.1h1.4
		l1.5-0.9h-5c-1.3,0-3,0.1-4.4,1.2c-1,0.9-1.4,2.1-1.4,3.2c0,1.8,1.4,3.7,4,3.7c0.2,0,0.5,0,0.8,0c-0.1,0.3-0.2,0.5-0.2,0.9
		c0,0.7,0.4,1.2,0.7,1.6c-1.1,0.1-3.1,0.2-4.6,1.1c-1.4,0.8-1.8,2-1.8,2.9c0,1.7,1.6,3.4,5.1,3.4c4.1,0,6.4-2.3,6.4-4.5
		C482.1,282.7,481.1,281.9,480.1,281z M476.9,278.4c-2.1,0-3-2.6-3-4.2c0-0.6,0.1-1.3,0.5-1.8c0.4-0.5,1.1-0.7,1.7-0.7
		c2,0,3,2.6,3,4.3c0,0.4,0,1.1-0.6,1.7C478.2,278,477.5,278.4,476.9,278.4z M477,287.8c-2.6,0-4.2-1.2-4.2-2.9s1.5-2.2,2.1-2.4
		c1-0.3,2.3-0.4,2.5-0.4c0.2,0,0.4,0,0.5,0c1.8,1.3,2.6,1.9,2.6,3.1C480.5,286.7,479.3,287.8,477,287.8z"/>
</g>
</svg>
