<?xml version="1.0" encoding="utf-8"?>
<!-- Generator: Adobe Illustrator 18.1.1, SVG Export Plug-In . SVG Version: 6.00 Build 0)  -->
<svg version="1.1" id="Layer_1" xmlns="http://www.w3.org/2000/svg" xmlns:xlink="http://www.w3.org/1999/xlink" x="0px" y="0px"
	 viewBox="0 0 400 150" enable-background="new 0 0 400 150" xml:space="preserve">
<g id="Layer_1_1_" display="none">
	<rect x="-0.2" display="inline" fill="#C6C6C5" width="400" height="150"/>
</g>
<g>
	<g>
		<path fill="#FFFFFF" d="M337.9,51.1c-0.1,1-0.3,2-0.4,2.9c-0.2,1.4-0.7,3.7-1,5.1l4.7-0.5L337.9,51.1z"/>
		<path fill="#FFFFFF" d="M283.7,61.3c0.6-0.1,2.7-0.4,2.5-2.8c-0.3-2.4-2-2.2-2.9-2.1l-3.9,0.4l0.6,5L283.7,61.3z"/>
		<path fill="#FFFFFF" d="M301.9,65.9c2.2-0.2,4.4-2.1,4.1-6c-0.1-1.9-0.9-3.8-2-4.8c-0.9-0.7-2.1-1.1-3.4-1c-2.8,0.3-4.3,3-3.9,6.3
			C297.1,64.8,299.8,66.2,301.9,65.9z"/>
		<path fill="#FFFFFF" d="M280.4,76c12.5-1.4,25-3.1,37.5-4.4c12.9-1.4,25.8-2.8,38.7-4.2c6-0.7,11.9-1.3,17.8-2.1
			c1.9-0.2-1.3-18.3-1.5-20.5c-0.1-0.6-0.3-7-0.9-7c-1.6,0-3.2,0.1-4.8,0.2c-2.6,0.1-5.2,0.4-7.8,0.6c-4.6,0.4-9.2,0.9-13.8,1.4
			c-7.7,0.8-15.3,1.7-22.9,2.7c-10.6,1.3-21.1,2.6-31.7,3.9c-1.4,0.2-2.7,0.4-4.1,0.5c-2.2,0.2-4.5,0.5-6.7,0.7
			c-5.5,0.6-10.9,1.2-16.4,1.9c-6.7,0.8-13.3,1.6-20,2.3c-5.9,0.6-11.7,1.3-17.6,1.9c-3.8,0.4-7.8,0.6-11.4,1.6
			c-1.3,0.4-1.9,0.6-2.1,1c-0.2,0.4-0.1,0.9,0,1.9c0.1,1.1,0.2,2.3,0.3,3.4l10.7-0.2L213,62.8c0,0.5,0.1,1.1,0.1,1.6
			c0.3,4.9,0.8,9.7,1.2,14.6c0,0.2,0.3,3.5,0.3,3.7c6.9-0.4,13.8-0.6,20.6-1.3C250.3,79.9,265.4,77.8,280.4,76z M362,59.1l-2.7,0.9
			l-0.1-1.3l2.7-0.9L362,59.1z M358.3,50.2l2.7-0.9l0.1,1.3l-2.7,0.9L358.3,50.2z M361.8,57l-2.7,0.9l-0.1-1.3l2.7-0.9L361.8,57z
			 M361.6,54.9l-2.7,0.9l-0.1-1.3l2.7-0.9L361.6,54.9z M361.4,52.7l-2.7,0.9l-0.1-1.3l2.7-0.9L361.4,52.7z M360.9,48.5l-2.7,0.9
			l-0.1-1.3l2.7-0.9L360.9,48.5z M363.6,62.5c0.1,0.9-1,1.7-2.5,1.9c-1.5,0.2-2.8-0.4-2.9-1.3c-0.1-0.6,0.4-1.2,1.3-1.6l-0.1-0.7
			l2.7-0.9l0.2,1.4C363,61.6,363.5,62,363.6,62.5z M358.9,43c1.5-0.1,2.7,0.5,2.8,1.4c0,0.5-0.4,1.1-1,1.4l0.1,0.6l-2.7,0.9
			l-0.1-1.2c-0.9-0.2-1.5-0.7-1.5-1.3C356.3,43.9,357.4,43.1,358.9,43z M335.1,46.9l4.8-0.5l8.9,17.6l-4.9,0.5l-1.2-2.8l-6.8,0.8
			l-0.6,3.1l-4.9,0.6L335.1,46.9z M316.2,49.1l4.7,6.3c1.8,2.4,2.3,3.2,3.3,4.7l-1.5-11.8l4.4-0.5l2.1,18.4l-4.5,0.5l-4.1-5.4
			c-2-2.5-2.4-3.1-3.9-5.4l1.4,11.6l-4.4,0.5l-2.1-18.4L316.2,49.1z M300.1,50.3c1.1-0.1,2.3-0.1,3.4,0.2c5.9,1.3,6.9,7.4,7.1,8.6
			c0.4,3.2-0.8,6.2-2.6,8.1c-1.6,1.7-3.7,2.4-5.6,2.6c-5.8,0.7-9.6-3.5-10.3-8.8C291.6,56.1,294.2,51,300.1,50.3z M282.6,52.9
			c1.9-0.2,4.3-0.4,6.2,1.2c1,0.9,1.7,2.3,1.9,3.9c0.4,3.7-2,4.9-3.2,5.5l5.1,6.9l-5.1,0.6l-4.4-6.2l-2.9,0.3l0.7,6.6l-4.6,0.5
			l-2.1-18.4L282.6,52.9z M262.3,54.6c1.1-0.1,2.3-0.1,3.4,0.2c5.8,1.3,6.9,7.4,7,8.7c0.4,3.2-0.8,6.2-2.6,8.1
			c-1.6,1.7-3.7,2.4-5.6,2.6c-5.8,0.7-9.6-3.5-10.3-8.8C253.8,60.3,256.4,55.3,262.3,54.6z M244.8,56.6c2.1-0.2,4.1,0.3,5.6,1.2
			c1.4,0.9,2.1,1.8,2.7,2.7l-3.4,2.2c-0.3-0.6-0.7-1.2-1.6-1.7c-1-0.6-1.9-0.7-2.6-0.6c-3,0.3-4.2,3.3-3.9,6.3
			c0.5,4,2.7,5.8,5.2,5.5c2.4-0.3,3.2-2,3.7-3.2l3.8,1.4c-0.6,1.1-1.1,2.3-2.4,3.4c-0.7,0.6-2.4,1.9-4.9,2.2
			c-4.9,0.6-9.2-2.5-9.9-8.8C236.4,61.9,239.6,57.1,244.8,56.6z M224.9,61.7L224.9,61.7l2.7-0.9l0.1,1.3L225,63L224.9,61.7z
			 M228.7,70.9l-2.7,0.9l-0.1-1.3l2.7-0.9L228.7,70.9z M225.1,63.9l2.7-0.9l0.1,1.3l-2.7,0.9L225.1,63.9z M225.3,66.1l2.7-0.9
			l0.1,1.3l-2.7,0.9L225.3,66.1z M225.6,68.3l2.7-0.9l0.1,1.3l-2.7,0.9L225.6,68.3z M226,72.7l2.7-0.9l0.1,1.3l-2.7,0.9L226,72.7z
			 M222.3,57.9c-0.1-1.1,1.3-2.1,3.1-2.2c1.8-0.1,3.3,0.6,3.4,1.7c0.1,0.7-0.5,1.4-1.4,1.8l0.1,0.7l-2.7,0.9l-0.1-1.2
			C223.4,59.4,222.4,58.7,222.3,57.9z M228.1,78.2c-1.8,0.1-3.3-0.4-3.4-1.3c0-0.6,0.6-1.2,1.6-1.5l0-0.5L229,74l0.1,1
			c1.2,0.1,2.1,0.6,2.2,1.3C231.3,77.3,229.9,78.1,228.1,78.2z"/>
		<path fill="#FFFFFF" d="M264.2,70.2c2.2-0.2,4.4-2.1,4.1-6c-0.1-1.9-0.9-3.8-2-4.8c-0.9-0.7-2.1-1.1-3.4-1c-2.8,0.3-4.3,3-3.9,6.3
			C259.4,69.1,262,70.4,264.2,70.2z"/>
		<path fill="#FFFFFF" d="M377.3,87.7l-5.7-0.7l5.6-0.2c-0.4-5.4-1.3-12.1-1.4-13.3c-0.1-0.6-0.4-7-1.1-7c-1.6,0-1.6,0.1-3.2,0.1
			c-2.6,0.1-5.2,0.4-7.8,0.6c-4.6,0.4-9.2,0.9-13.8,1.4c-7.7,0.8-15.3,1.7-22.9,2.7c-10.6,1.3-21.1,2.6-31.6,3.9
			c-1.4,0.2-2.7,0.4-4.1,0.5c-2.2,0.2-4.5,0.5-6.7,0.7c-5.5,0.6-10.9,1.2-16.4,1.9c-6.7,0.8-13.3,1.6-20,2.3
			c-5.9,0.6-11.7,1.3-17.6,1.9c-3.8,0.4-8.9,0.5-12.5,1.1c-1.3,0.2-1.9,0.6-2.1,1c-0.2,0.4-0.1,0.9,0,1.9c0.2,2,0.8,4,0.9,6.1
			c0.3,4.9,1.4,10.2,1.8,15.1c0,0.2,0.3,3.6,0.3,3.7c6.9-0.4,13.8-1.3,20.6-1.9c15.1-1.5,30.2-3.5,45.2-5.3
			c12.5-1.4,25-2.5,37.5-3.9c12.9-1.4,25.8-2.8,38.7-4.2c5.9-0.7,9.8-1.1,15.8-1.9C377.4,94.1,377.5,91.2,377.3,87.7z M228.1,91.5
			l2.7-0.8l0.1,1.2l-2.7,0.8L228.1,91.5z M231.9,99.7l-2.7,0.8l-0.1-1.2l2.7-0.8L231.9,99.7z M231.2,93.8l-2.7,0.8l-0.1-1.2l2.7-0.8
			L231.2,93.8z M228.5,95.4l2.7-0.8l0.1,1.2l-2.7,0.8L228.5,95.4z M228.8,97.4l2.7-0.8l0.1,1.2l-2.7,0.8L228.8,97.4z M229.2,101.3
			L229.2,101.3l2.7-0.8l0.1,1.2l-2.7,0.8L229.2,101.3z M225.5,88.1c-0.1-0.9,1.3-1.8,3.1-2c1.8-0.1,3.3,0.5,3.4,1.5
			c0.1,0.6-0.5,1.2-1.4,1.6l0.1,0.7l-2.7,0.8l-0.1-1.1C226.6,89.4,225.6,88.8,225.5,88.1z M231.3,106.2c-1.8,0.1-3.3-0.4-3.4-1.2
			c0-0.5,0.6-1,1.6-1.3l0-0.4l2.7-0.8l0.1,0.9c1.2,0.1,2.1,0.6,2.2,1.1C234.5,105.4,233.1,106.1,231.3,106.2z M361.6,76.9l2.7-0.9
			l0.1,1.3l-2.7,0.9L361.6,76.9z M365.4,86.3L365.4,86.3l-2.7,0.9l-0.1-1.3l2.7-0.9L365.4,86.3z M361.8,79.1l2.7-0.9l0.1,1.3
			l-2.7,0.9L361.8,79.1z M362.1,81.4l2.7-0.9l0.1,1.3l-2.7,0.9L362.1,81.4z M362.3,83.6l2.7-0.9l0.1,1.3l-2.7,0.9L362.3,83.6z
			 M362.8,88.1l2.7-0.9l0.1,1.3l-2.7,0.9L362.8,88.1z M258.7,103l-1.3-13.1l-0.2-1.9l-0.1,0.7c-0.1,1.1-0.1,1.2-0.2,2l-2,12.8
			l-4,0.5l-4.8-11.4l-1.2-3.2c0.3,1.4,0.3,1.8,0.6,3.5l1.6,11.6l-4.5,0.5l-2.2-18.4l6.7-0.8l4.1,10l1,2.9c0.1-1.3,0.1-1.4,0.2-2.3
			l1.6-11.3l6.7-0.8l2.2,18.4L258.7,103z M264.1,102.3L261.9,84l13.6-1.6l0.4,3.6l-9,1.1l0.4,3.3l8.4-1l0.4,3.5l-8.4,1l0.5,4.4
			l9.8-1.2l0.4,3.6L264.1,102.3z M291.4,99l-4.4-6.1l-2.9,0.3l0.8,6.6l-4.6,0.6L278,82l8.3-1c1.9-0.2,4.3-0.5,6.2,1.1
			c1,0.9,1.7,2.2,2,3.9c0.5,3.7-2,4.9-3.2,5.5l5.1,6.8L291.4,99z M310.8,95.6c-0.7,0.6-2.4,1.9-4.9,2.2c-4.9,0.6-9.2-2.5-10-8.7
			c-0.7-5.4,2.5-10.2,7.7-10.8c2.1-0.3,4.1,0.2,5.6,1.2c1.4,0.9,2.1,1.8,2.7,2.7l-3.4,2.3c-0.3-0.6-0.7-1.2-1.6-1.7
			c-1-0.6-1.9-0.7-2.6-0.6c-3,0.4-4.2,3.3-3.8,6.4c0.5,4,2.8,5.8,5.3,5.5c2.4-0.3,3.1-2.1,3.6-3.2l3.8,1.4
			C312.7,93.3,312.2,94.4,310.8,95.6z M325.7,94.9l-0.9-7.8l-6.7,0.8l0.9,7.8l-4.6,0.6l-2.2-18.4l4.6-0.6l0.8,6.6l6.7-0.8l-0.8-6.6
			l4.6-0.6l2.2,18.4L325.7,94.9z M331.3,89.6l-0.2-1.4l1.3-0.2l0.2,1.4L331.3,89.6z M335.7,89.2c-1.4,0.2-2.6-0.8-2.8-2.4
			c-0.2-1.5,0.8-2.8,2.2-3c1.3-0.2,2,0.6,2.3,1.2l-1,0.6c-0.1-0.3-0.5-0.8-1.2-0.7c-0.7,0.1-1.2,0.7-1.1,1.7
			c0.1,0.9,0.7,1.5,1.5,1.4c0.8-0.1,1-0.7,1.1-1.1l1.1,0.4C337.5,88.5,336.6,89.1,335.7,89.2z M340.7,88.6c-1.6,0.2-2.7-0.8-2.9-2.4
			c-0.2-1.5,0.7-2.8,2.2-3c1.4-0.2,2.7,0.7,2.9,2.3C343.1,87.1,342.2,88.4,340.7,88.6z M350.3,87.2l-0.3-2.8c-0.1-0.5-0.1-1.3-1-1.2
			c-0.4,0-0.7,0.3-0.8,0.6c-0.2,0.4-0.2,0.8-0.1,1.2l0.3,2.4l-1.2,0.2l-0.3-2.8c0-0.4-0.1-0.5-0.1-0.6c-0.1-0.3-0.4-0.5-0.8-0.5
			c-0.4,0-0.7,0.3-0.9,0.7c-0.2,0.4-0.1,0.9-0.1,1.4l0.3,2.1L344,88l-0.6-5l1.2-0.1l0.1,0.6c0.3-0.5,1-0.9,1.5-0.9
			c0.5-0.1,1.1,0.1,1.5,0.6c0.2-0.3,0.6-0.9,1.5-1c0.5-0.1,1,0,1.4,0.3c0.5,0.4,0.5,0.9,0.6,1.4l0.4,3.2L350.3,87.2z M359.1,73
			c-0.1-1.1,1.3-2.1,3.1-2.2c1.8-0.2,3.3,0.6,3.4,1.7c0.1,0.7-0.5,1.4-1.4,1.8l0.1,0.7l-2.7,0.9l-0.1-1.3
			C360.1,74.5,359.2,73.9,359.1,73z M364.9,93.7c-1.8,0.2-3.3-0.4-3.4-1.3c0-0.6,0.6-1.2,1.6-1.5l0-0.5v0l2.7-0.9l0.1,1.1
			c1.2,0.1,2.1,0.6,2.2,1.3C368.1,92.7,366.7,93.6,364.9,93.7z"/>
		<path fill="#FFFFFF" d="M286.9,84.4l-3.9,0.5l0.6,5l3.8-0.5c0.6-0.1,2.7-0.4,2.4-2.9C289.6,84.2,287.9,84.3,286.9,84.4z"/>
		<path fill="#FFFFFF" d="M340.1,84.3c-0.8,0.1-1.2,0.8-1.1,1.7c0.1,1,0.8,1.5,1.5,1.4c0.9-0.1,1.2-0.9,1.1-1.7
			C341.6,84.9,341,84.2,340.1,84.3z"/>
	</g>
	<g>
		<path fill="none" d="M107.7,66.1h-26v2.4h26V66.1z M84.6,68.1c-0.4,0-0.7-0.3-0.7-0.7c0-0.4,0.3-0.7,0.7-0.7
			c0.4,0,0.7,0.3,0.7,0.7C85.4,67.8,85,68.1,84.6,68.1z M89.6,68.1c-0.4,0-0.7-0.3-0.7-0.7c0-0.4,0.3-0.7,0.7-0.7
			c0.4,0,0.7,0.3,0.7,0.7C90.3,67.8,90,68.1,89.6,68.1z M94.7,68.1c-0.4,0-0.7-0.3-0.7-0.7c0-0.4,0.3-0.7,0.7-0.7
			c0.4,0,0.7,0.3,0.7,0.7C95.4,67.8,95.1,68.1,94.7,68.1z M99.8,68.1c-0.4,0-0.7-0.3-0.7-0.7c0-0.4,0.3-0.7,0.7-0.7
			c0.4,0,0.7,0.3,0.7,0.7C100.5,67.8,100.2,68.1,99.8,68.1z M104.8,68.1c-0.4,0-0.7-0.3-0.7-0.7c0-0.4,0.3-0.7,0.7-0.7
			c0.4,0,0.7,0.3,0.7,0.7C105.5,67.8,105.2,68.1,104.8,68.1z"/>
		<path fill="none" d="M110.7,75c-0.3-0.4-2.1-1.5-2.1-1.5l-2.7,1.7c1,0.1,1.4,1,1.4,1.5v8.1l-1,0c2.2,1.3,2.8,2.6,2.8,2.6
			s0.6-1.3,2.8-2.6h-1v-8.1l1.5-0.8l1.1,0.8v8.1l-1,0c2.2,1.3,2.7,2.6,2.7,2.6s0.6-1.3,2.8-2.6h-1l0-8.5c0,0,0.6-1,0.3-1.1
			c-1.1-0.4-3.2-1.7-3.2-1.7l-0.4,0.3C111.2,75.2,110.7,75,110.7,75z"/>
		<path fill="none" d="M100.5,87.3c1.8-2.1,5-2.5,5-2.5c-0.5-0.2-0.7-0.9-0.7-1.1v-7.7c0-0.4,0.6-0.9,0.6-0.9
			c-2.1-0.2-5.4-1.7-5.4-1.7c-1.8,1.6-4.8,1.7-4.8,1.7c-0.1,0.3,0.4,1,0.4,1v7.4c0,0-0.2,0.1-0.7,0.7c-0.2,0.2-0.3,0.4-0.3,0.4
			C98.8,85.2,100.5,87.3,100.5,87.3z M98.8,75.6c0-0.2,2.7,1,2.7,1v7.7c-2.2-0.4-2.7-1-2.7-1V75.6z"/>
		<path fill="none" d="M90.9,76c2.8,1.5,3.8,0.3,4.1-0.7c-1.1-0.2-2.5-1.8-2.5-1.8l-0.4,0.3c-2.3,1.5-2,1.2-2,1.2
			c-0.3-0.4-2.1-1.5-2.1-1.5l-2.8,1.7c1,0.1,1.4,1,1.4,1.5v8.1l-1,0c2.2,1.3,2.8,2.6,2.8,2.6s0.6-1.3,2.8-2.6h-1v-8.4
			C90.2,75.8,90.9,76,90.9,76z"/>
		<path fill="none" d="M118.6,84.3c-0.1,0.1-0.2,0.3-0.3,0.4c2.4,0.3,5,2.6,5,2.6l1.9-2.1l2.2,2.1l2.6-2.6c0,0-0.2,0-1.1-0.2
			c-0.8-0.1-1.1-0.8-1.1-1.1v-7.6v-0.8c-2.4-0.8-4.8-1.6-4.8-1.6c-2.2,1.3-4.6,1.7-4.6,1.7c-0.1,0.3,0.4,1,0.4,1v7.8
			C118.9,83.9,118.8,84.1,118.6,84.3z M122,75.6c0.1,0.1,2.4,0.9,2.4,0.9v7.7c-1-0.8-2.4-1.3-2.4-1.3V75.6z"/>
		<path fill="none" d="M130.6,56.3c0,0,0.5,0.6,1.4,0.3c2.5-0.8,5.2-1.2,7.9-1c1.7,0.1,3.4,0.5,4.9,1.1c0,0,1.1,0.5,1.5-0.5
			c0,0,0.5-2.1,0.5-2.1c0.6-2.4-3-3.3-4.5-3.9c-0.7-0.3-1.4-0.7-1.6-1.4c-0.5-1.1,0-2.3-0.4-3.4c-0.3-0.9-1.1-1.7-2.1-1.6
			c0,0-1.8,0-2,2c-0.1,1.4,0.4,2.9-0.9,3.9c-0.7,0.6-1.7,0.8-2.5,1.1c-0.9,0.3-1.7,0.8-2.4,1.3c0,0-1,0.7-0.6,1.8L130.6,56.3z"/>
		<path fill="none" d="M138.2,56.3c-1.4,0-2.9,0.2-4.4,0.5c-0.5,0.8-0.7,1.7-0.7,2.7c0,2.9,2.3,5.3,5.1,5.3c2.8,0,5.1-2.4,5.1-5.3
			c0-1-0.3-1.9-0.7-2.7c-0.9-0.2-1.8-0.4-2.8-0.5C139.2,56.3,138.7,56.3,138.2,56.3z"/>
		<path fill="none" d="M129.8,88.2h0.1v-0.5h0.2l0.2,0.3l0.1,0.2h0.2l-0.3-0.5c0.2,0,0.3-0.1,0.3-0.3c0-0.1,0-0.2-0.1-0.2
			c-0.1-0.1-0.2-0.1-0.3-0.1h-0.5V88.2z M129.9,87.2h0.3c0.1,0,0.3,0,0.3,0.2c0,0.2-0.2,0.2-0.4,0.2h-0.2V87.2z"/>
		<path fill="none" d="M129.2,87.6c0,0.5,0.4,1,1,1c0.5,0,1-0.4,1-1c0-0.5-0.4-0.9-1-0.9C129.6,86.7,129.2,87.1,129.2,87.6z
			 M130.9,87.6c0,0.5-0.4,0.8-0.8,0.8c-0.5,0-0.8-0.4-0.8-0.8c0-0.4,0.4-0.8,0.8-0.8C130.6,86.8,130.9,87.2,130.9,87.6z"/>
		<path fill="none" d="M81.8,64.4h26c0.2-1.2,0.9-3.5,3.1-5.4c0.1-0.2,0.1-0.4-0.1-0.6c-0.2-0.1-0.4-0.1-0.6,0
			c-0.6,0.5-1.1,0.7-1.6,0.8c-0.4,0-0.7,0.2-1,0.5l-0.4,0.4c0,0.1-0.2,0.2-0.8,0.2c-0.1,0.1-0.4,0.2-0.3,0.4
			c0.2,0.2,0.4,0.5,0.5,0.8c0.1,0.6,0,1.2-0.5,1.9c-0.2,0.2-0.5,0.3-0.9,0.3c-0.2,0-0.4-0.1-0.4-0.4c0-0.2,0.1-0.4,0.3-0.5
			c0.4-0.5,0.4-0.9,0-1.2c-0.3-0.1-0.6-0.1-0.9,0c-0.6,0.2-0.6,0.7-0.3,1.2c0,0.1,0,0.3-0.1,0.5c-0.1,0.3-0.4,0.4-0.7,0.3
			c-0.5-0.3-0.8-0.8-0.7-1.6c0.2-0.4,0.5-0.7,0.8-1c-0.3-0.6-0.8-1-1.4-1.3c-0.6,0.3-1,0.7-1.4,1.3c0.3,0.3,0.5,0.6,0.7,1
			c0.1,0.5,0,1-0.4,1.5c-0.4,0.2-0.7,0.4-1.1,0.2c-0.3-0.2-0.3-0.5-0.1-0.9c0.2-0.4,0.2-0.8-0.1-1.1c-0.3-0.2-0.6-0.2-0.9,0
			c-0.4,0.3-0.3,0.6,0,1.1c0,0.2,0,0.4,0,0.5c-0.3,0.6-0.7,0.5-1.2,0.3c-0.9-0.9-0.9-1.7,0.2-2.6c0.2-0.3,0.1-0.6-0.3-0.7
			c-0.7-0.2-1.4-0.5-1.8-1.1c-0.4-0.9-1-0.9-1.4,0c-0.4,0.6-1.1,0.9-1.8,1.1c-0.4,0.1-0.5,0.4-0.3,0.6c1.1,0.9,1.1,1.7,0.2,2.6
			c-0.5,0.2-0.9,0.3-1.2-0.3c-0.1-0.1-0.1-0.3,0-0.5c0.3-0.4,0.3-0.8,0-1.1c-0.3-0.2-0.6-0.2-0.9,0c-0.4,0.3-0.4,0.7-0.1,1.1
			c0.1,0.3,0.1,0.6-0.1,0.8c-0.4,0.2-0.7,0.1-1.1-0.1c-0.4-0.5-0.4-1-0.4-1.5c0.1-0.4,0.4-0.7,0.6-1.1c-0.3-0.5-0.7-1-1.4-1.3
			c-0.5,0.3-1,0.8-1.4,1.3c0.3,0.3,0.6,0.6,0.8,1.1c0.1,0.8-0.1,1.4-0.7,1.6c-0.4,0.1-0.6,0-0.7-0.3c0-0.2-0.1-0.4-0.1-0.5
			c0.4-0.5,0.2-1-0.3-1.2c-0.3-0.1-0.6-0.1-0.9,0c-0.4,0.4-0.4,0.7,0,1.2c0.2,0.1,0.3,0.3,0.3,0.5c0,0.2-0.2,0.4-0.4,0.4
			c-0.4,0-0.6-0.1-0.8-0.3c-0.6-0.6-0.7-1.2-0.6-1.9c0.1-0.3,0.3-0.5,0.5-0.8c0.1-0.2-0.2-0.4-0.3-0.4c-0.6-0.1-0.7-0.2-0.7-0.2
			l-0.4-0.4c-0.2-0.2-0.6-0.4-1-0.4c-0.4,0-1-0.3-1.6-0.8c-0.1-0.1-0.3-0.1-0.5,0c-0.2,0.2-0.2,0.4-0.1,0.5
			C80.8,60.9,81.6,63.2,81.8,64.4z"/>
		<path fill="none" d="M64.9,90.4c0,0,4,0,7-1.6v1.6c0,0.1-0.2,0.1-0.2,0.1c-0.9,0-1.6,0.6-1.6,1.3c0,0.7,0.7,1.3,1.6,1.3
			c0.9,0,1.6-0.6,1.6-1.3v-3.6c0,0,0.8-0.6,1.1-0.9c0.3-0.2,0.1-0.7-0.3-0.6c-0.3,0.1-0.8,0.3-0.8,0.3V72.2c0,0,2.9,0.3,4.4-1.5
			c0,0-3.5-0.1-4.9-3.2c0,0-3.2,3.6-8.3,4.9l0.3,0.9v11.6l-1,1c0,0-3.8-2.5-4.1-6.2c-0.3-3.4,0.2-5.9,4-9.1c0,0,1.2-1.1,3.1-1.8
			v-0.4c-6,0-13,5.5-13,11.9C53.7,86.6,58.5,90.4,64.9,90.4z M69.6,83.3V71.2c0-0.6,2.2,0.8,2.2,0.8v15.3c-5,0.6-6.4-0.6-6.4-0.6
			L69.6,83.3z"/>
		<path fill="none" d="M80.6,58c0.7,0.2,1.4,0.4,1.9,0.7c0.4,0.1,0.8,0,1.1-0.2c1.6-1.2,3.4-2.3,5.5-2.9c0.3-0.1,0.5,0,0.4,0.3
			c-0.8,0.6-1.4,1.5-1.8,2.5c0,0.3,0.2,0.5,0.7,0.4c0.4-0.1,0.6-0.1,0.9,0.1c0.3,0.1,0.6,0,0.8-0.5c0.2-1.4,1.1-2.4,2.3-3
			c0.6-0.1,0.8,0.2,0.7,0.7c-0.5,0.5-0.8,1-1,1.6c0,0.5,0.3,0.7,0.8,0.6c0.3,0,0.5-0.2,0.7-0.7c0.5-0.9,1.7-0.9,2.1,0
			c0.2,0.5,0.4,0.7,0.6,0.7c0.5,0.1,0.8,0,0.8-0.6c-0.1-0.6-0.5-1.1-1-1.6c-0.1-0.5,0.2-0.8,0.7-0.7c1.2,0.7,2.1,1.6,2.3,3
			c0.2,0.5,0.5,0.6,0.7,0.5c0.2-0.1,0.5-0.2,0.9-0.1c0.5,0,0.7-0.1,0.7-0.4c-0.4-1.1-1-1.9-1.8-2.5c-0.1-0.3,0.1-0.4,0.4-0.3
			c2.1,0.6,3.9,1.7,5.5,2.9c0.4,0.2,0.7,0.3,1.1,0.2c0.6-0.4,1.2-0.6,1.9-0.7c0.4-0.1,0.6-0.4,0.5-0.9c-0.3-0.5-0.8-0.8-1.4-0.8
			c-0.2,0-0.5,0-0.6-0.2c-0.4-0.7-1.1-0.9-2.1-0.8c-0.5-0.5-1.1-0.6-1.8-0.6c-0.6-0.6-1.3-0.7-2-0.6c-0.8-0.5-1.5-0.7-2.1-0.4
			c-1-0.4-1.9-0.2-2.6,0.2c-0.2-0.5-0.6-0.9-1.2-1.1v-0.6h0.9v-0.9h-0.9v-1h-1.6v1H93v0.9h0.9v0.6c-0.6,0.2-1,0.6-1.2,1.1
			c-0.7-0.5-1.6-0.6-2.6-0.2c-0.6-0.3-1.4-0.1-2.1,0.4c-0.7-0.1-1.4-0.1-2,0.6c-0.7,0-1.3,0.1-1.8,0.6c-1-0.1-1.7,0.1-2.1,0.8
			c-0.2,0.2-0.4,0.2-0.6,0.2c-0.6,0.1-1.1,0.4-1.4,0.8C80,57.7,80.2,58,80.6,58z M94.7,53.4c0.5,0,0.9,0.5,0.9,1.1
			c0,0.6-0.4,1.2-0.9,1.2c-0.5,0-0.9-0.5-0.9-1.2C93.8,53.9,94.2,53.4,94.7,53.4z"/>
		<rect x="81.8" y="64.9" fill="none" width="26" height="0.6"/>
		<path fill="none" d="M74.2,84.3c-0.2,0.2-0.3,0.4-0.3,0.4c4.1,0.4,5.8,2.6,5.8,2.6c1.8-2.1,5-2.5,5-2.5c-0.5-0.2-0.7-0.9-0.7-1.1
			v-7.7c0-0.4,0.6-0.9,0.6-0.9c-2.1-0.2-5.4-1.7-5.4-1.7c-1.8,1.6-4.8,1.7-4.8,1.7c-0.1,0.3,0.4,1,0.4,1v7.4
			C74.9,83.6,74.7,83.6,74.2,84.3z M78,75.6c0-0.2,2.7,1,2.7,1v7.7c-2.2-0.4-2.7-1-2.7-1V75.6z"/>
		<path fill="none" d="M33.6,102.3c-5.8,0.2-8.5-0.7-9.5-1.1l0,0.5c0,0.1,0.2,0.3,0.4,0.4c0.2,0.1,0.3,0.2,0.3,0.4l1.4,15.2
			c0,0.2,1,5.2,9.8,5.3l118.2-0.2c0.3,0,7.9-1,8-7.4l1.3-13.7c0-0.2,0.1-0.3,0.3-0.4c0,0,0.2-0.1,0.3-0.4c-2.7,1.3-7.1,1.5-7.1,1.5
			L33.6,102.3z"/>
		<path fill="#FFFFFF" d="M24.3,35.9c5.3,0.9,16.3,0.6,16.3,0.6l35-0.1c-0.3-2.1-0.5-6.9,3.6-8.5h30.6c0,0,4,1.2,3.2,8.4l41.4-0.2
			c10.8,0.2,11-1.3,11-1.3V30c-0.3-3.8-3.6-4.8-3.6-4.8L27.4,25.2c-4.2,1.8-4.2,5.2-4.2,5.2v4.4C22.8,35.9,24.3,35.9,24.3,35.9z"/>
		<path fill="#FFFFFF" d="M101.5,76.6c0,0-2.7-1.1-2.7-1v7.7c0,0,0.4,0.5,2.7,1V76.6z"/>
		<path fill="#FFFFFF" d="M84.6,66.7c-0.4,0-0.7,0.3-0.7,0.7c0,0.4,0.3,0.7,0.7,0.7c0.4,0,0.7-0.3,0.7-0.7
			C85.4,67,85,66.7,84.6,66.7z"/>
		<path fill="#FFFFFF" d="M71.9,87.4V72.1c0,0-2.2-1.4-2.2-0.8v12.1l-4.1,3.5C65.5,86.8,66.8,88,71.9,87.4z"/>
		<path fill="#FFFFFF" d="M89.6,66.7c-0.4,0-0.7,0.3-0.7,0.7c0,0.4,0.3,0.7,0.7,0.7c0.4,0,0.7-0.3,0.7-0.7
			C90.3,67,90,66.7,89.6,66.7z"/>
		<path fill="#FFFFFF" d="M80.7,76.6c0,0-2.7-1.1-2.7-1v7.7c0,0,0.4,0.5,2.7,1V76.6z"/>
		<path fill="#FFFFFF" d="M104.8,66.7c-0.4,0-0.7,0.3-0.7,0.7c0,0.4,0.3,0.7,0.7,0.7c0.4,0,0.7-0.3,0.7-0.7
			C105.5,67,105.2,66.7,104.8,66.7z"/>
		<path fill="#FFFFFF" d="M94.7,55.7c0.5,0,0.9-0.5,0.9-1.2c0-0.6-0.4-1.1-0.9-1.1c-0.5,0-0.9,0.5-0.9,1.1
			C93.8,55.2,94.2,55.7,94.7,55.7z"/>
		<path fill="#FFFFFF" d="M99.8,66.7c-0.4,0-0.7,0.3-0.7,0.7c0,0.4,0.3,0.7,0.7,0.7c0.4,0,0.7-0.3,0.7-0.7
			C100.5,67,100.2,66.7,99.8,66.7z"/>
		<path fill="#FFFFFF" d="M94.7,66.7c-0.4,0-0.7,0.3-0.7,0.7c0,0.4,0.3,0.7,0.7,0.7c0.4,0,0.7-0.3,0.7-0.7
			C95.4,67,95.1,66.7,94.7,66.7z"/>
		<path fill="#FFFFFF" d="M124.5,76.6c0,0-2.3-0.8-2.4-0.9V83c0,0,1.4,0.5,2.4,1.3V76.6z"/>
		<path fill="#FFFFFF" d="M164.6,36.4c0,0-0.6,0.8-3.5,0.9c0,0-101.1,1.3-132.4,0.4c0,0-4-0.1-5-1.1c0,0-0.9,0.8-0.9,1.3l0.4,62.3
			l-0.1,1.4c0,0.1,0,0.1,0,0.2c0,0.1,0.2,0.6,0.7,1l1.4,14.9c0,0.2,1.1,6,10.8,6.2c0,0,0,0,0,0l118.3-0.2c0.1,0,8.8-1.1,9-8.4
			l1.2-13.4c0.3-0.2,0.9-0.8,0.8-1.7l0-0.1c0,0,0,0,0,0l0-0.6l0-0.6c0-0.1,0-0.1,0-0.2l0.3-61.1C165.5,37.7,165.8,37.3,164.6,36.4z
			 M130.2,52.1c0.8-0.5,1.6-1,2.4-1.3c0.8-0.3,1.8-0.5,2.5-1.1c1.3-1,0.8-2.6,0.9-3.9c0.2-1.9,2-2,2-2c1,0,1.8,0.7,2.1,1.6
			c0.3,1.1-0.1,2.3,0.4,3.4c0.3,0.7,1,1.1,1.6,1.4c1.6,0.7,5.1,1.6,4.5,3.9c0,0-0.5,2.1-0.5,2.1c-0.5,0.9-1.5,0.5-1.5,0.5
			c-1.5-0.6-3.2-1-4.9-1.1c-2.7-0.2-5.3,0.1-7.9,1c-0.9,0.3-1.4-0.3-1.4-0.3l-1-2.4C129.2,52.8,130.2,52.1,130.2,52.1z M143.2,59.5
			c0,2.9-2.3,5.3-5.1,5.3c-2.8,0-5.1-2.4-5.1-5.3c0-1,0.3-1.9,0.7-2.7c1.5-0.4,2.9-0.5,4.4-0.5c0.5,0,1,0,1.5,0.1
			c1,0.1,1.9,0.2,2.8,0.5C143,57.6,143.2,58.5,143.2,59.5z M131.1,87.6c0,0.5-0.4,1-1,1c-0.5,0-1-0.4-1-1c0-0.5,0.4-0.9,1-0.9
			C130.7,86.7,131.1,87.1,131.1,87.6z M118.4,75.2c0,0,2.4-0.4,4.6-1.7c0,0,2.3,0.8,4.8,1.6v0.8v7.6c0,0.2,0.3,0.9,1.1,1.1
			c0.8,0.1,1.1,0.2,1.1,0.2l-2.6,2.6l-2.2-2.1l-1.9,2.1c0,0-2.6-2.3-5-2.6c0-0.1,0.2-0.3,0.3-0.4c0.2-0.3,0.3-0.4,0.3-0.4v-7.8
			C118.9,76.1,118.4,75.5,118.4,75.2z M113.9,73.4c0,0,2.1,1.3,3.2,1.7c0.3,0.1-0.3,1.1-0.3,1.1l0,8.5h1c-2.2,1.3-2.8,2.6-2.8,2.6
			s-0.5-1.3-2.7-2.6l1,0v-8.1l-1.1-0.8l-1.5,0.8v8.1h1c-2.2,1.3-2.8,2.6-2.8,2.6s-0.6-1.3-2.8-2.6l1,0v-8.1c0-0.4-0.4-1.4-1.4-1.5
			l2.7-1.7c0,0,1.8,1.1,2.1,1.5c0,0,0.5,0.2,2.8-1.3L113.9,73.4z M91.2,84.7c-2.2,1.3-2.8,2.6-2.8,2.6s-0.6-1.3-2.8-2.6l1,0v-8.1
			c0-0.4-0.4-1.4-1.4-1.5l2.8-1.7c0,0,1.8,1.1,2.1,1.5c0,0-0.3,0.3,2-1.2l0.4-0.3c0,0,1.4,1.6,2.5,1.8c-0.3,1-1.3,2.3-4.1,0.7
			c0,0-0.7-0.2-0.7,0.3v8.4H91.2z M95,84.3c0.5-0.7,0.7-0.7,0.7-0.7v-7.4c0,0-0.5-0.6-0.4-1c0,0,3-0.2,4.8-1.7c0,0,3.3,1.5,5.4,1.7
			c0,0-0.6,0.5-0.6,0.9v7.7c0,0.1,0.2,0.8,0.7,1.1c0,0-3.1,0.4-5,2.5c0,0-1.7-2.1-5.8-2.6C94.7,84.7,94.8,84.5,95,84.3z M81.8,68.6
			v-2.4h26v2.4H81.8z M74.5,75.2c0,0,3-0.2,4.8-1.7c0,0,3.3,1.5,5.4,1.7c0,0-0.6,0.5-0.6,0.9v7.7c0,0.1,0.2,0.8,0.7,1.1
			c0,0-3.1,0.4-5,2.5c0,0-1.7-2.1-5.8-2.6c0,0,0.1-0.2,0.3-0.4c0.5-0.7,0.7-0.7,0.7-0.7v-7.4C74.9,76.1,74.4,75.5,74.5,75.2z
			 M81.8,65.6v-0.6h26v0.6H81.8z M80.1,57.2c0.3-0.5,0.8-0.8,1.4-0.8c0.3,0,0.5,0,0.6-0.2c0.4-0.7,1.1-0.9,2.1-0.8
			c0.5-0.5,1.1-0.6,1.8-0.6c0.6-0.6,1.3-0.7,2-0.6c0.7-0.5,1.5-0.7,2.1-0.4c1-0.4,1.8-0.2,2.6,0.2c0.2-0.5,0.6-0.9,1.2-1.1v-0.6H93
			v-0.9h0.9v-1h1.6v1h0.9v0.9h-0.9v0.6c0.6,0.2,0.9,0.6,1.2,1.1c0.7-0.5,1.6-0.6,2.6-0.2c0.6-0.3,1.3-0.1,2.1,0.4
			c0.7-0.1,1.4-0.1,2,0.6c0.7,0,1.3,0.1,1.8,0.6c1-0.1,1.7,0.1,2.1,0.8c0.2,0.2,0.4,0.2,0.6,0.2c0.6,0.1,1.1,0.4,1.4,0.8
			c0.1,0.5,0,0.8-0.5,0.9c-0.7,0.2-1.4,0.4-1.9,0.7c-0.4,0.1-0.8,0-1.1-0.2c-1.6-1.2-3.4-2.3-5.5-2.9c-0.3-0.1-0.5,0-0.4,0.3
			c0.8,0.6,1.4,1.5,1.8,2.5c0,0.3-0.2,0.5-0.7,0.4c-0.4-0.1-0.6-0.1-0.9,0.1c-0.3,0.1-0.6,0-0.7-0.5c-0.2-1.4-1.1-2.4-2.3-3
			c-0.6-0.1-0.8,0.2-0.7,0.7c0.5,0.5,0.8,1,1,1.6c0,0.5-0.3,0.7-0.8,0.6c-0.2,0-0.5-0.2-0.6-0.7c-0.5-0.9-1.7-0.9-2.1,0
			c-0.2,0.5-0.4,0.7-0.7,0.7c-0.5,0.1-0.7,0-0.8-0.6c0.1-0.6,0.5-1.1,1-1.6c0.1-0.5-0.2-0.8-0.7-0.7c-1.2,0.7-2.1,1.6-2.3,3
			c-0.2,0.5-0.5,0.6-0.8,0.5c-0.2-0.1-0.5-0.2-0.9-0.1c-0.5,0-0.7-0.1-0.7-0.4c0.4-1.1,1-1.9,1.8-2.5c0.1-0.3-0.1-0.4-0.4-0.3
			c-2.1,0.6-3.9,1.7-5.5,2.9c-0.4,0.2-0.7,0.3-1.1,0.2c-0.6-0.4-1.2-0.6-1.9-0.7C80.2,58,80,57.7,80.1,57.2z M78.8,58.4
			c0.2-0.1,0.4-0.1,0.5,0c0.6,0.5,1.2,0.7,1.6,0.8c0.4,0,0.7,0.2,1,0.4l0.4,0.4c0,0.1,0.2,0.1,0.7,0.2c0.1,0,0.5,0.2,0.3,0.4
			c-0.2,0.2-0.4,0.5-0.5,0.8c-0.1,0.6,0,1.3,0.6,1.9c0.2,0.2,0.5,0.3,0.8,0.3c0.2,0,0.4-0.1,0.4-0.4c0-0.2-0.1-0.4-0.3-0.5
			c-0.4-0.5-0.3-0.9,0-1.2c0.3-0.1,0.6-0.1,0.9,0c0.5,0.2,0.6,0.7,0.3,1.2c0,0.1,0,0.3,0.1,0.5c0.1,0.3,0.4,0.4,0.7,0.3
			c0.5-0.2,0.8-0.8,0.7-1.6c-0.2-0.4-0.5-0.7-0.8-1.1c0.4-0.5,0.8-1,1.4-1.3c0.6,0.3,1.1,0.8,1.4,1.3c-0.2,0.3-0.5,0.6-0.6,1.1
			c-0.1,0.5,0,1,0.4,1.5c0.4,0.2,0.7,0.4,1.1,0.1c0.2-0.2,0.2-0.5,0.1-0.8c-0.2-0.4-0.2-0.8,0.1-1.1c0.3-0.2,0.6-0.2,0.9,0
			c0.4,0.3,0.3,0.6,0,1.1c0,0.2,0,0.4,0,0.5c0.3,0.6,0.7,0.5,1.2,0.3c0.9-0.9,0.9-1.7-0.2-2.6c-0.2-0.2-0.1-0.6,0.3-0.6
			c0.7-0.2,1.4-0.6,1.8-1.1c0.4-0.9,1-0.9,1.4,0c0.4,0.6,1.1,0.9,1.8,1.1c0.4,0.1,0.5,0.4,0.3,0.7c-1,0.9-1.1,1.7-0.2,2.6
			c0.5,0.2,0.9,0.3,1.2-0.3c0-0.1,0.1-0.3,0-0.5c-0.3-0.5-0.3-0.8,0-1.1c0.3-0.2,0.6-0.2,0.9,0c0.4,0.3,0.4,0.7,0.1,1.1
			c-0.1,0.3-0.1,0.6,0.1,0.9c0.4,0.2,0.7,0.1,1.1-0.2c0.4-0.5,0.4-1,0.4-1.5c-0.1-0.4-0.4-0.7-0.7-1c0.3-0.6,0.8-1,1.4-1.3
			c0.6,0.3,1,0.7,1.4,1.3c-0.3,0.3-0.6,0.6-0.8,1c-0.1,0.9,0.2,1.4,0.7,1.6c0.3,0,0.6,0,0.7-0.3c0.1-0.2,0.1-0.4,0.1-0.5
			c-0.4-0.5-0.3-1,0.3-1.2c0.3-0.1,0.6-0.1,0.9,0c0.4,0.4,0.4,0.7,0,1.2c-0.2,0.1-0.3,0.3-0.3,0.5c0,0.2,0.2,0.3,0.4,0.4
			c0.4,0,0.6,0,0.9-0.3c0.6-0.6,0.7-1.2,0.5-1.9c-0.1-0.3-0.3-0.6-0.5-0.8c-0.1-0.2,0.2-0.4,0.3-0.4c0.6-0.1,0.7-0.2,0.8-0.2
			l0.4-0.4c0.2-0.3,0.5-0.4,1-0.5c0.4,0,1-0.3,1.6-0.8c0.1-0.1,0.3-0.1,0.6,0c0.2,0.2,0.2,0.4,0.1,0.6c-2.2,1.9-2.9,4.2-3.1,5.4h-26
			c-0.2-1.2-0.9-3.5-3.1-5.4C78.5,58.8,78.6,58.6,78.8,58.4z M66.8,68.4v0.4c-1.9,0.7-3.1,1.8-3.1,1.8c-3.8,3.2-4.3,5.8-4,9.1
			c0.3,3.7,4.1,6.2,4.1,6.2l1-1V73.3l-0.3-0.9c5-1.3,8.3-4.9,8.3-4.9c1.4,3.1,4.9,3.2,4.9,3.2c-1.5,1.7-4.4,1.5-4.4,1.5v14.8
			c0,0,0.5-0.2,0.8-0.3c0.3-0.1,0.6,0.3,0.3,0.6c-0.3,0.2-1.1,0.9-1.1,0.9v3.6c0,0.7-0.7,1.3-1.6,1.3c-0.9,0-1.6-0.6-1.6-1.3
			c0-0.7,0.7-1.3,1.6-1.3c0,0,0.2,0,0.2-0.1v-1.6c-3,1.6-7,1.6-7,1.6c-6.3,0-11.1-3.8-11.1-10.1C53.7,73.9,60.7,68.4,66.8,68.4z
			 M163.8,101.1c-0.2,0.1-0.3,0.2-0.3,0.4l-1.3,13.7c-0.2,6.4-7.8,7.4-8,7.4L36,122.9c-8.9-0.1-9.8-5.1-9.8-5.3l-1.4-15.2
			c0-0.2-0.1-0.3-0.3-0.4c-0.2-0.1-0.4-0.3-0.4-0.4l0-0.5c1,0.5,3.7,1.3,9.5,1.1l123.5-0.1c0,0,4.4-0.2,7.1-1.5
			C164,101,163.8,101.1,163.8,101.1z"/>
		<path fill="#FFFFFF" d="M129.3,87.6c0,0.5,0.4,0.8,0.8,0.8c0.5,0,0.8-0.4,0.8-0.8c0-0.4-0.4-0.8-0.8-0.8
			C129.7,86.8,129.3,87.2,129.3,87.6z M130.5,87.1c0.1,0,0.1,0.1,0.1,0.2c0,0.2-0.2,0.3-0.3,0.3l0.3,0.5h-0.2l-0.1-0.2l-0.2-0.3
			h-0.2v0.5h-0.1v-1.1h0.5C130.3,87.1,130.4,87.1,130.5,87.1z"/>
		<path fill="#FFFFFF" d="M130.5,87.4c0-0.2-0.1-0.2-0.3-0.2h-0.3v0.4h0.2C130.3,87.6,130.5,87.6,130.5,87.4z"/>
	</g>
</g>
</svg>
