<?xml version="1.0" encoding="utf-8"?>
<!-- Generator: Adobe Illustrator 18.1.1, SVG Export Plug-In . SVG Version: 6.00 Build 0)  -->
<svg version="1.1" id="Layer_1" xmlns="http://www.w3.org/2000/svg" xmlns:xlink="http://www.w3.org/1999/xlink" x="0px" y="0px"
	 viewBox="0 0 400 150" enable-background="new 0 0 400 150" xml:space="preserve">
<g id="Layer_1_1_" display="none">
	<rect x="-0.2" display="inline" fill="#C6C6C5" width="400" height="150"/>
</g>
<g>
	<path fill="#FFFFFF" d="M161.8,53.8c-4.8,0-9.4,0.9-13.7,2.5l-3.3-7.9l0,0l-1.4-3.4c5-1.2,8.5-3.4,10.5-6.7
		c2.1-3.5,1.9-7.3,1.6-9.4c1.9-0.9,3.5-2.5,4.7-4.3c1.3-1.7,3.1-4.4-0.5-4.4c-1,0-2.1,0-2.8,0.7c-0.7,0.7-0.8,1.7-1.2,2.6
		c-0.7,1.7-2.5,1.5-4.1,1.6c-1.7,0.2-3.9,0.1-5.6,0.8c-0.3,0.1-0.5,0.3-0.7,0.5L135,28c0,0,0,0,0,0c0,0-0.1,0-0.1,0c0,0-0.1,0-0.1,0
		c0,0,0,0,0,0c0,0-0.1,0-0.1,0c0,0-0.1,0-0.1,0.1c0,0-0.1,0.1-0.1,0.1c0,0-0.1,0.1-0.1,0.1c0,0-0.1,0.1-0.1,0.1c0,0-0.1,0.1-0.1,0.1
		c0,0,0,0.1-0.1,0.1c0,0,0,0.1-0.1,0.1c0,0,0,0.1,0,0.1c0,0,0,0.1,0,0.1c0,0,0,0.1,0,0.1c0,0,0,0.1,0,0.1c0,0,0,0.1,0,0.2
		c0,0,0,0.1,0,0.1c0,0,0,0,0,0c0,0.1,0,0.2,0.1,0.3l3.1,7.3l-56.6,6.6c-0.1-0.1-0.1-0.1-0.2-0.1c0,0,0,0-0.1,0l-5.5-18.6
		c0,0,0.1,0,0.1,0c1-0.3,1.9-0.7,2.7-1.3c0.4-0.3,0.8-0.6,1.2-0.8c0.8-0.4,1.7-0.4,2.6-0.5c1.6-0.1,3.2-0.2,4.8-0.2
		c0.7,0,2.5,0.5,2.7-0.6c0.1-0.5-0.3-1.1-0.6-1.4c-0.7-0.7-1.9-1-2.8-1.2c-1.6-0.3-3.3-0.1-4.9,0.1c-0.7,0.1-1.5,0.1-2.2,0.2
		c-0.6,0-1.3,0.1-1.9,0.1c-2.2,0.1-4.4,0.1-6.5,0.1c-0.7,0-1.4,0-2.1-0.1c-0.9,0-1.9-0.1-2.8-0.1c-1.4-0.1-2.9-0.3-4.3-0.5
		c-0.1,0-0.2,0-0.3-0.1c-0.7-0.1-2-0.2-1.6,0.9c0.1,0.3,0.3,0.5,0.6,0.7c0.5,0.3,1.1,0.4,1.7,0.6c0.8,0.3,1.6,0.7,2.3,1.1
		c0.6,0.4,1.3,0.7,1.8,1.2c0.5,0.5,0.7,1.2,1.1,1.6c0.8,0.7,1.8,0.8,2.8,0.8c0.7,0,1.5,0,2.2-0.1c0.1,0,0.3,0,0.4,0c0,0,0,0,0,0.1
		l5.7,19.5l-9.4,14.1c-5.7-3.5-12.5-5.5-19.7-5.5c-21,0-38.1,17-38.1,38.1c0,21,17,38.1,38.1,38.1c18.5,0,33.9-13.2,37.4-30.7
		l8.8,1.2c0.1,0,0.1,0,0.2,0c0,0,0,0,0,0c0,0,0.1,0,0.1,0c0,0,0.1,0,0.1,0c0.4,0,0.7-0.1,1-0.4L143,51.5l2.5,5.9
		c-12.9,6.1-21.8,19.2-21.8,34.4c0,21,17,38.1,38.1,38.1c21,0,38.1-17,38.1-38.1C199.8,70.8,182.8,53.8,161.8,53.8z M152.6,29.6
		c0.3,1.7,0.3,4.6-1.2,7.2c-1.6,2.7-4.7,4.6-9.2,5.5l-5-11.8l7.4-1.2c1.2,1.5,4.1,0.6,5.7,0.5C151.1,29.8,151.8,29.7,152.6,29.6z
		 M48.5,127.1c-19.4,0-35.2-15.8-35.2-35.2c0-19.4,15.8-35.2,35.2-35.2c6.6,0,12.8,1.8,18.1,5l-0.5,0.7C61,59.2,55,57.4,48.5,57.4
		c-19,0-34.4,15.4-34.4,34.4c0,19,15.4,34.4,34.4,34.4c16.7,0,30.5-11.8,33.7-27.6l0.8,0.1C79.8,114.9,65.6,127.1,48.5,127.1z
		 M83.5,96l-0.8-0.1c0.2-1.3,0.2-2.7,0.2-4c0-11.5-5.7-21.7-14.4-28l0.5-0.7c8.9,6.4,14.8,16.9,14.8,28.7
		C83.8,93.2,83.7,94.6,83.5,96z M50.3,91.3L50.3,91.3l27-15.6c2.7,4.7,4.2,10.1,4.3,15.8h-30L50.3,91.3z M51.2,89.9L67.7,65
		c3.7,2.7,6.8,6.1,9.2,10L51.2,89.9z M65,64.1l0.4-0.6c0,0,0,0,0,0L65,64.1z M58.8,73.4l-9.9,14.8V58.9c5.7,0.1,11.1,1.6,15.8,4.2
		L58.8,73.4z M48.2,89.3l-0.4,0.6L32.4,63.1c4.7-2.6,10.1-4.2,15.8-4.2V89.3z M31.8,63.5l15.6,27l-0.1,0.2L20.2,75
		C23,70.3,27,66.3,31.8,63.5z M19.8,75.6l27,15.6l-0.1,0.2H15.6C15.7,85.7,17.2,80.3,19.8,75.6z M46.4,92.2
		C46.4,92.2,46.4,92.2,46.4,92.2C46.4,92.2,46.4,92.2,46.4,92.2c0,0.1,0,0.2,0,0.3c0,0,0,0.1,0,0.1c0,0,0,0,0,0.1L19.8,108
		c-2.6-4.7-4.2-10.1-4.2-15.8H46.4z M46.7,93.3C46.7,93.3,46.8,93.3,46.7,93.3c0.1,0.1,0.1,0.1,0.1,0.1c0,0,0.1,0.1,0.1,0.1
		c0,0,0,0,0.1,0.1c0,0,0,0,0,0c0,0,0,0,0,0l-15.4,26.6c-4.8-2.8-8.8-6.8-11.6-11.6L46.7,93.3z M47.8,93.8l0.4,0.1v30.9
		c-5.7-0.1-11.1-1.6-15.8-4.3L47.8,93.8z M48.9,94l0.5,0.1l15.3,26.5c-4.7,2.7-10.1,4.2-15.8,4.3V94z M65.3,120.2l-15-26l2.1,0.3
		l24.5,14.1C74.1,113.4,70.1,117.4,65.3,120.2z M77.3,108l-23-13.3l26.5,3.7C80.2,101.9,78.9,105.1,77.3,108z M56.6,92.2h25
		c0,1.2-0.1,2.3-0.2,3.5L56.6,92.2z M70.6,60.8l8.1-12.1L93,97.3l-6.6-0.9c0.2-1.5,0.3-3,0.3-4.5C86.6,79,80.3,67.7,70.6,60.8z
		 M95.7,96.4L81.1,46.7l56.6-6.6c0.2,0,0.3-0.1,0.5-0.2l3.7,8.8L95.7,96.4z M161.8,127.1c-19.4,0-35.2-15.8-35.2-35.2
		c0-14,8.2-26.1,20.1-31.8l0.3,0.8c-11.6,5.5-19.5,17.4-19.5,31c0,19,15.4,34.4,34.4,34.4c19,0,34.4-15.4,34.4-34.4
		c0-19-15.4-34.4-34.4-34.4c-4.3,0-8.4,0.8-12.2,2.2l-0.3-0.8c3.9-1.5,8.1-2.3,12.6-2.3c19.4,0,35.2,15.8,35.2,35.2
		C197,111.3,181.2,127.1,161.8,127.1z M145,63.5L156.3,83l2.9,6.9L133.4,75C136.2,70.3,140.2,66.3,145,63.5z M133.1,75.6L159.6,91
		l0.2,0.5h-31C128.9,85.7,130.4,80.3,133.1,75.6z M160.1,92.2l0.1,0.1L133,108c-2.6-4.7-4.2-10.1-4.2-15.8H160.1z M160.5,93
		c0,0.1,0.1,0.1,0.1,0.2l-15.6,27c-4.8-2.8-8.8-6.8-11.6-11.6L160.5,93z M161.1,93.6c0.1,0,0.2,0.1,0.3,0.1v31.1
		c-5.7-0.1-11.1-1.6-15.8-4.3L161.1,93.6z M162.1,93.7c0.1,0,0.1,0,0.2-0.1c0,0,0.1,0,0.1,0l15.5,26.9c-4.7,2.7-10.1,4.2-15.8,4.3
		V93.7z M178.6,120.2l-15.6-27c0-0.1,0.1-0.1,0.1-0.2l27.1,15.6C187.3,113.4,183.3,117.4,178.6,120.2z M190.5,108l-27.3-15.8
		c0,0,0,0,0,0h31.6C194.7,97.9,193.1,103.3,190.5,108z M163.1,91.5l27.4-15.8c2.7,4.7,4.2,10.1,4.3,15.8H163.1z M162.7,90.8
		l15.8-27.4c4.8,2.8,8.7,6.8,11.6,11.6L162.7,90.8z M162.4,90.1l-0.2-0.5V58.9c5.7,0.1,11.1,1.6,15.8,4.2L162.4,90.1z M161.4,87.9
		L150.1,61c3.5-1.3,7.3-2.1,11.3-2.1V87.9z M154,77.7l-8.4-14.6c0.6-0.3,1.2-0.7,1.9-1L154,77.7z"/>
	<g>
		<path fill-rule="evenodd" clip-rule="evenodd" fill="#FDFDFD" d="M248.2,77.8c0.6-1.2,1.2-2.3,1.7-3.5c0.1-0.2,0.2-0.2,0.4-0.2
			c2.3,0,4.6,0,6.9,0c1,0,1.9-0.4,2.3-1.4c0.2-0.4,0.4-0.8,0.6-1.2c0.3-0.7,0-1.1-0.7-1.2c-0.2,0-0.4,0-0.6,0c-2.2,0-4.5,0-6.7,0
			c-0.5,0-1,0-1.5,0.1c-0.9,0.2-1.6,0.7-2,1.6c-1.6,3.2-3.2,6.4-4.8,9.5c-0.1,0.2-0.3,0.3-0.5,0.3c-1.6,0-3.2,0-4.7,0
			c-0.1,0-0.2,0-0.3,0c0-0.1,0-0.1,0.1-0.2c1.9-3.9,3.9-7.7,5.8-11.6c0.6-1.2,1.4-2.1,2.7-2.6c1-0.4,2.1-0.5,3.2-0.6
			c0.6,0,1.2,0,1.8,0c3,0,5.9,0,8.9,0c1.3,0,2.6,0.2,3.8,0.9c0.6,0.3,1.1,0.7,1.3,1.4c0.2,0.6,0.2,1.2-0.1,1.8
			c-0.6,1.4-1.2,2.8-2,4.1c-0.6,1.2-1.7,1.8-2.9,2.2c-0.9,0.3-1.8,0.4-2.8,0.4c-0.8,0-1.6,0-2.4,0c-0.1,0-0.1,0-0.3,0
			c2.1,1.2,4,2.3,6,3.5c0.9-0.8,1.9-1.6,2.8-2.5c3.5-3.1,7-6.2,10.5-9.3c1.9-1.7,4.1-2.6,6.7-2.5c1.5,0,2.9,0,4.4,0
			c0.1,0,0.2,0,0.4,0c0.5,5,0.9,9.9,1.4,14.9c-1.8,0-3.6,0-5.5,0c-0.1-0.6-0.1-1.2-0.2-1.8c-0.1,0-0.3,0-0.4,0c-4.3,0-8.5,0-12.8,0
			c-0.2,0-0.4,0.1-0.5,0.2c-0.5,0.4-1,0.9-1.5,1.3c-0.1,0.1-0.3,0.2-0.5,0.2c-1.1,0-2.3,0-3.4,0c-2.4,0-4.9,0-7.3,0
			c-0.1,0-0.3,0-0.4-0.1C252.9,80.4,250.6,79.1,248.2,77.8z M281.7,76.4c-0.2-2.1-0.4-4.1-0.6-6.2c-0.2,0-0.4,0-0.6,0
			c-0.9,0.1-1.7,0.6-2.4,1.2c-1.8,1.6-3.6,3.2-5.4,4.8c0,0-0.1,0.1-0.1,0.2"/>
		<path fill-rule="evenodd" clip-rule="evenodd" fill="#FDFDFD" d="M356.1,76c-2.5,0-4.9,0-7.4,0c0.3-0.5,0.5-1,0.8-1.5
			c0.3-0.6,0.6-1.2,0.9-1.7c0.1-0.2,0.2-0.2,0.4-0.2c4.1,0,8.2,0,12.3,0c0.1,0,0.1,0,0.2,0c-0.1,0.1-0.1,0.2-0.1,0.3
			c-1.4,2.8-2.9,5.7-4.3,8.6c-0.1,0.2-0.2,0.3-0.4,0.3c-3.7,0-7.5,0-11.2,0c-1.9,0-3.9,0-5.8,0c-0.7,0-1.5-0.1-2.2-0.4
			c-0.9-0.4-1.3-1.1-1-2.1c0.1-0.3,0.2-0.5,0.3-0.8c1.4-2.7,2.8-5.4,4.1-8.2c0.8-1.6,2-2.5,3.6-3c0.9-0.3,1.8-0.4,2.7-0.4
			c3,0,6,0,9.1,0c2.7,0,5.3,0,8,0c0.1,0,0.2,0,0.4,0c-0.4,0.9-0.8,1.7-1.3,2.5c-0.1,0.3-0.3,0.6-0.4,0.9c-0.1,0.2-0.2,0.2-0.4,0.2
			c-3.8,0-7.6,0-11.4,0c-1.1,0-2.2,0-3.3,0c-1.1,0-1.9,0.4-2.4,1.5c-0.8,1.7-1.7,3.4-2.6,5.1c-0.3,0.5-0.1,0.8,0.4,1
			c0.2,0.1,0.5,0.1,0.7,0.1c3.1,0,6.1,0,9.2,0c0.2,0,0.3,0,0.4-0.2C355.5,77.2,355.8,76.7,356.1,76z"/>
		<path fill-rule="evenodd" clip-rule="evenodd" fill="#FDFDFD" d="M325,72.6c-0.5,0.9-0.9,1.7-1.3,2.6c0,0.1-0.1,0.1-0.1,0.2
			c-0.2,0.6-0.6,0.8-1.2,0.8c-2.5,0-5,0-7.5,0c-0.3,0-0.4,0.1-0.5,0.3c-0.1,0.3-0.3,0.5-0.4,0.8c-0.2,0.5,0,0.8,0.5,0.9
			c0.2,0,0.3,0,0.5,0c4.5,0,8.9,0,13.4,0c0.1,0,0.2,0,0.4,0c-0.2,0.3-0.3,0.7-0.5,1c-0.4,0.8-0.8,1.6-1.2,2.5
			c-0.1,0.2-0.2,0.2-0.4,0.2c-5.1,0-10.1,0-15.2,0c-0.9,0-1.7-0.1-2.5-0.4c-0.9-0.4-1.4-1-1.3-1.8c0-0.3,0.1-0.6,0.2-0.8
			c1.5-3,3-6,4.5-9c0.5-0.9,1.3-1.5,2.2-1.9c1.3-0.6,2.7-0.9,4.2-0.9c5.2,0,10.3,0,15.5,0c0,0,0.1,0,0.1,0c0,0.1-0.1,0.2-0.1,0.3
			c-0.5,1.1-1.1,2.1-1.6,3.2c-0.1,0.2-0.2,0.3-0.4,0.3c-4.4,0-8.9,0-13.3,0c-0.8,0-1.5,0.2-2,0.9c-0.2,0.3-0.4,0.7-0.6,1.1
			C319.2,72.6,322.1,72.6,325,72.6z"/>
		<path fill-rule="evenodd" clip-rule="evenodd" fill="#FEFEFE" d="M371.2,72.6c0.2,0,0.3,0,0.3,0c3,0,6,0,9,0
			c0.2,0,0.3-0.1,0.4-0.3c0.9-1.8,1.7-3.5,2.6-5.3c0.1-0.1,0.1-0.3,0.4-0.3c1.7,0,3.5,0,5.2,0c0.1,0,0.1,0,0.2,0
			c-0.3,0.5-0.5,1-0.8,1.6c-2,3.9-4,7.9-5.9,11.8c-0.2,0.4-0.4,0.9-0.7,1.3c-0.1,0.1-0.2,0.2-0.3,0.2c-1.8,0-3.6,0-5.3,0
			c0,0,0,0-0.1,0c0.9-1.9,1.9-3.7,2.8-5.6c-0.1,0-0.3,0-0.4,0c-3,0-6,0-8.9,0c-0.2,0-0.4,0.1-0.5,0.3c-0.8,1.7-1.7,3.4-2.5,5.1
			c-0.1,0.2-0.2,0.3-0.4,0.3c-1.7,0-3.4,0-5.1,0c-0.1,0-0.2,0-0.4,0c0.1-0.1,0.1-0.2,0.2-0.3c2.4-4.8,4.8-9.5,7.2-14.3
			c0.1-0.2,0.2-0.3,0.4-0.3c1.8,0,3.6,0,5.5,0C373.1,68.7,372.1,70.6,371.2,72.6z"/>
		<path fill-rule="evenodd" clip-rule="evenodd" fill="#FDFDFD" d="M300.2,66.9c-0.7,1.3-1.3,2.6-1.9,3.8c-1,2-2,4-3,6
			c0,0.1-0.1,0.2-0.1,0.2c-0.2,0.5-0.1,0.9,0.4,1c0.3,0.1,0.7,0.2,1.1,0.2c3.3,0,6.6,0,9.9,0c0.1,0,0.2,0,0.4,0
			c-0.2,0.4-0.4,0.8-0.6,1.2c-0.4,0.7-0.7,1.4-1.1,2.2c-0.1,0.2-0.2,0.2-0.3,0.2c-4.3,0-8.6,0-13,0c-0.6,0-1.3-0.1-1.9-0.3
			c-1.4-0.4-1.8-1.5-1.2-2.8c1.4-2.8,2.7-5.5,4.1-8.2c0.5-1.1,1.1-2.2,1.6-3.2c0-0.1,0.2-0.2,0.3-0.2
			C296.7,66.9,298.4,66.9,300.2,66.9z"/>
		<path fill-rule="evenodd" clip-rule="evenodd" fill="#FDFDFD" d="M342.3,66.8c-0.4,0.8-0.7,1.5-1.1,2.2c-2.1,4.1-4.1,8.3-6.2,12.4
			c-0.1,0.2-0.2,0.3-0.5,0.3c-1.7,0-3.5,0-5.3,0c0.1-0.1,0.1-0.3,0.2-0.4c2.3-4.5,4.5-9,6.8-13.6c0.2-0.3,0.3-0.8,0.5-0.9
			c0.3-0.2,0.7,0,1.1,0c1.4,0,2.9,0,4.3,0C342.1,66.8,342.2,66.8,342.3,66.8z"/>
		<path fill-rule="evenodd" clip-rule="evenodd" fill="#FDFDFD" d="M245,66.8c-0.8,0.2-1.4,0.8-1.9,1.5c-0.5,0.8-1,1.6-1.5,2.4
			c-0.1,0.1-0.1,0.2-0.3,0.2c-4.4,0-8.7,0-13.1,0c0,0,0,0-0.1,0c0-0.1,0-0.2,0.1-0.2c0.6-1.2,1.2-2.5,1.8-3.7
			c0.1-0.2,0.2-0.2,0.4-0.2C235.3,66.8,240.2,66.8,245,66.8z"/>
		<path fill-rule="evenodd" clip-rule="evenodd" fill="#FDFDFD" d="M222.7,81.8c0-0.1,0.1-0.2,0.1-0.3c0.6-1.2,1.2-2.4,1.8-3.7
			c0.1-0.2,0.2-0.2,0.4-0.2c4.3,0,8.6,0,13,0c0.1,0,0.1,0,0.2,0c0,0.1-0.1,0.2-0.1,0.2c-0.6,1.2-1.2,2.5-1.8,3.7
			c-0.1,0.2-0.2,0.2-0.4,0.2c-4.3,0-8.7,0-13,0C222.8,81.8,222.8,81.8,222.7,81.8z"/>
		<path fill-rule="evenodd" clip-rule="evenodd" fill="#FDFDFD" d="M225.4,76.4c0.3-0.6,0.5-1.1,0.8-1.6c0.4-0.8,0.8-1.5,1.1-2.3
			c0.1-0.2,0.2-0.2,0.3-0.2c4.3,0,8.7,0,13,0c0.1,0,0.1,0,0.2,0c0,0.1-0.1,0.2-0.1,0.2c-0.6,1.2-1.2,2.4-1.8,3.6
			c-0.1,0.1-0.2,0.2-0.3,0.2c-4.3,0-8.6,0-13,0C225.6,76.4,225.5,76.4,225.4,76.4z"/>
	</g>
</g>
</svg>
