<?xml version="1.0" encoding="utf-8"?>
<!-- Generator: Adobe Illustrator 18.1.1, SVG Export Plug-In . SVG Version: 6.00 Build 0)  -->
<svg version="1.1" id="Layer_1" xmlns="http://www.w3.org/2000/svg" xmlns:xlink="http://www.w3.org/1999/xlink" x="0px" y="0px"
	 viewBox="0 0 531.3 254.7" enable-background="new 0 0 531.3 254.7" xml:space="preserve">
<g>
	<g>
		<path fill="#FFFFFF" d="M66.5,174.7c0,0-0.4,11.3-10.6,15.9c0,0,11.9,10.6,16.1,27l2.9-1.1h37.8l3.1,3.1c0,0-8,12.5-20.1,13.5
			c-11,0.9-19.2-0.7-29.8-12.9c0,0-3.6-4-5.8-10.2h-1.3c0,19.7,17.9,42.5,38.7,42.5c20.6,0,32.8-15.7,32.8-36.3
			c0,0,0.1-13.1-5.2-22.9h5.1c0.4,0,0.3,0.8,0.3,0.8c0,2.8,1.9,5.1,4.2,5.1c2.3,0,4.2-2.3,4.2-5.1c0-2.8-1.9-5.1-4.2-5.1h-11.6
			c0,0-2.1-2.7-2.8-3.7c-0.7-0.9-2.2-0.2-1.8,0.9c0.4,1.1,1.1,2.7,1.1,2.7H71.3C71.3,188.9,72.2,179.4,66.5,174.7 M120.7,193.3
			c1.8,16.4-1.8,20.8-1.8,20.8l-11.5-13.5H68c-1.8,0,2.7-7.3,2.7-7.3H120.7z"/>
		<path fill="#FFFFFF" d="M83.9,153.5c-1.4,0-2.9-1.8-2.9-1.8c-0.7,6.7-5.6,17.5-5.6,17.5c5.1,6,5.6,15.7,5.6,15.7
			c1.1,0.2,3.1-1.5,3.1-1.5h24.2c0,0,0.3,0.5,2.4,2.2c0.7,0.5,1.4,0.9,1.4,0.9c1.5-13.5,8.4-18.9,8.4-18.9c-6.7-6-8.2-16.2-8.2-16.2
			c-0.7,1.6-3,2.2-3.5,2.2H83.9z M110.6,164.5c-1.5,7.3-3.1,8.7-3.1,8.7H82.4c-0.5,0,3.1-8.7,3.1-8.7H110.6z"/>
		<path fill="#FFFFFF" d="M83.9,86c-1.4,0-2.9-1.8-2.9-1.8c-0.7,6.7-5.6,17.5-5.6,17.5c5.1,6,5.6,15.7,5.6,15.7
			c1.1,0.2,3.1-1.5,3.1-1.5h24.2c0,0,0.3,0.5,2.4,2.2c0.7,0.5,1.4,0.9,1.4,0.9c1.5-13.5,8.4-19,8.4-19c-6.7-6-8.2-16.2-8.2-16.2
			c-0.7,1.6-3,2.2-3.5,2.2H83.9z M110.6,96.9c-1.5,7.3-3.1,8.7-3.1,8.7H82.4c-0.5,0,3.1-8.7,3.1-8.7H110.6z"/>
		<path fill="#FFFFFF" d="M111.5,7.4c-0.4,2.7-2.8,3.6-3.5,3.6H83.3h-2.7c-2.6,7.8-5.3,15.5-5.3,15.5c4.4,7.3,5.6,15.1,5.6,15.1
			c1.1,0.2,3.1-1.5,3.1-1.5h25.4c0,0,0.4,0.3,1.3,1c0.4,0.3,1,0.8,1.2,1c1-7.8,8.4-16.4,8.4-16.4l-6.7-6.3l6.7-7.1L112,4
			C112,4,111.9,4.7,111.5,7.4 M110.6,22c-2.5,3.3-4.2,7.8-4.2,7.8h-24c0.5-0.4,3.1-7.8,3.1-7.8H110.6z"/>
		<path fill="#FFFFFF" d="M112,130.4c4.1,7.1,8.4,9,8.4,9s-4.4,1.9-8.4,9l0-3.3H85.7c-1.4,0-4.5,1.4-4.7,4.6l-5.6-9.2
			c0,0,3.5-5.8,4.9-6.7c0,0,0.9,1.1-4.1-6.4l-0.9-1.3c0,0,5.2-4.5,5.9-8.1c3.3,0.9,7.4,4.2,2.3,13.3c0,0-0.5,2.2,1,2.2H112V130.4z"
			/>
		<path fill="#FFFFFF" d="M81,46c-1.4,3.6-5.7,10.4-5.7,10.4l0.9,1.3c4.9,7.5,4.2,9.2,4.2,9.2c-1.5,0.9-4.9,6.7-4.9,6.7l5.5,8.9
			c0.2-3.3,3.3-4.6,4.7-4.6H112l0,3.3c4.1-7.1,8.5-9,8.5-9s-4.4-1.9-8.4-9v3.3l-26.5,0l-2.7-4.7l2.7-3.6H112l0,3.3
			c4.1-7.1,8.4-8.6,8.4-8.6s-4.4-1.9-8.4-9v3.3l-27.6,0C84.4,46.9,81.3,45.1,81,46"/>
	</g>
	<g>
		<path fill="#FFC425" d="M26.3,66.8c-0.2,0.8-0.2,1.4,0.1,1.9c1.5,2,2.4,3.7,2.6,5.1c0.1,1.4,0.6,2.4,1.5,3.1l1.3,1.4
			c0.2,0.1,0.6,0.7,0.8,2.6c0.2,0.3,0.8,1.4,1.4,0.9c0.8-0.6,1.7-1.2,2.7-1.6c2-0.5,4.1-0.1,6,1.7c0.8,0.7,1,1.6,0.9,2.8
			c-0.1,0.6-0.5,1.3-1.2,1.3c-0.7-0.1-1.3-0.4-1.7-1c-1.5-1.2-2.8-1.2-3.9,0.1c-0.5,0.9-0.5,1.9,0,2.8c0.8,1.9,2.4,2.1,3.9,0.9
			c0.5,0,1,0.1,1.7,0.3c0.9,0.5,1.2,1.3,1,2.3c-0.9,1.7-2.6,2.6-5.3,2.3c-1.3-0.8-2.4-1.7-3.4-2.7c-1.9,1-3.3,2.6-4.2,4.4
			c0.9,1.9,2.3,3.4,4.2,4.4c1-0.9,2.1-1.7,3.4-2.2c1.6-0.2,3.3-0.1,4.8,1.2c0.8,1.2,1.3,2.3,0.6,3.5c-0.8,0.8-1.7,0.8-2.8,0.3
			c-1.3-0.8-2.6-0.7-3.6,0.5c-0.7,0.9-0.6,2.1,0,2.9c0.9,1.2,2.1,1,3.6,0.1c0.6-0.1,1.2,0,1.5,0.1c2,0.9,1.7,2.3,1,3.9
			c-2.8,2.9-5.7,2.8-8.5-0.6c-0.9-0.7-2-0.3-2.2,0.9c-0.7,2.4-1.7,4.5-3.7,5.9c-2.9,1.4-2.9,3.3,0,4.6c1.9,1.4,3,3.6,3.7,5.9
			c0.2,1.3,1.3,1.6,2.1,1c2.9-3.5,5.7-3.5,8.6-0.7c0.7,1.6,0.8,3-1,3.9c-0.5,0.2-0.9,0.2-1.6,0.1c-1.4-0.9-2.7-1-3.5,0.1
			c-0.6,0.9-0.7,2,0,3c0.9,1.2,2.3,1.2,3.6,0.3c0.9-0.3,1.9-0.3,2.7,0.3c0.7,1.3,0.4,2.3-0.5,3.5c-1.6,1.3-3.1,1.4-4.8,1.2
			c-1.4-0.5-2.4-1.3-3.5-2.1c-1.7,0.9-3.1,2.4-4.2,4.4c1,1.7,2.4,3.3,4.2,4.4c1-1,2.1-2,3.5-2.7c2.7-0.3,4.4,0.5,5.2,2.2
			c0.2,1.2,0,2-1,2.4c-0.6,0.1-1.2,0.2-1.6,0.2c-1.5-1.2-3.1-0.8-3.9,0.9c-0.5,0.9-0.5,1.9,0,2.9c1.2,1.2,2.4,1.3,3.9,0.1
			c0.5-0.7,1-1,1.6-1c0.8-0.1,1.2,0.6,1.3,1.3c0.1,1.2-0.2,2-0.9,2.7c-2,2-4.1,2.3-6.2,1.9c-0.9-0.5-1.7-1-2.6-1.7
			c-0.6-0.5-1.3,0.6-1.4,1c-0.4,1.9-0.6,2.4-0.8,2.4l-1.4,1.4c-0.8,0.8-1.3,1.9-1.4,3.1c-0.1,1.4-1,3.3-2.6,5.2
			c-0.3,0.5-0.3,1-0.1,1.7c0.6,0.6,1.2,0.7,1.7,0.5c6.4-7.2,13.8-9.6,17.7-10.2V76.6c-3.8-0.6-11.3-3-17.5-10.1
			C27.4,66.1,26.8,66.2,26.3,66.8"/>
		<path fill="#FFC425" d="M25.1,164.9c0.6-2.2,1.3-4.4,2.4-6.3c0.3-1.3,0-2.6-0.7-3.7c-4.1-5.1-7.4-10.9-9.5-17.8
			c-0.4-1,0-1.6,1-1.3c2.1,2.7,4.8,4.6,8.2,5.8c1,0,1.5-0.7,1.4-2.2c-0.3-1.2-0.2-2.1,0.2-2.8c0.2-1-0.1-1.9-1.7-2.6
			c-4.5-0.7-7.7-3.5-9.9-7.6c-0.2-1.9,0.6-2.7,2.3-2.4c1.6,1.5,3.4,2.7,5.2,3.1c1.7-0.1,2.3-1,1.9-2.6c0-0.9-0.8-1.6-2.3-2.2
			c-2.8-1.5-2.8-5.5,0-7c1.5-0.6,2.3-1.3,2.3-2.1c0.5-1.6-0.1-2.6-1.9-2.7c-1.9,0.5-3.6,1.6-5.2,3.1c-1.7,0.2-2.6-0.6-2.3-2.4
			c2.2-4.1,5.3-6.9,9.9-7.6c1.6-0.6,2-1.5,1.7-2.4c-0.5-0.8-0.6-1.7-0.2-2.9c0.1-1.5-0.3-2.2-1.4-2.2c-3.5,1.2-6.2,3.1-8.2,5.8
			c-1,0.3-1.4-0.2-1-1.3c2.1-6.9,5.5-12.7,9.5-17.8c0.7-1.2,1-2.4,0.7-3.7c-1.2-1.9-1.9-3.9-2.4-6.3c-0.2-1.4-1.3-1.9-2.9-1.5
			c-1.5,1-2.4,2.6-2.7,4.6c0.1,0.8-0.1,1.5-0.7,2.1c-2.2,1.3-3,3.6-2.6,6.7c-1.7,1.5-2.1,3.6-2,5.8c-2.1,2-2.3,4.2-1.9,6.5
			c-1.6,2.6-2.2,4.9-1.2,6.8c-1.3,3.3-0.8,6,0.7,8.4c-1.7,0.8-3,2-3.7,3.8H6.2v-3h-3v3H0v5.1h3.1v3h3v-3h2.1c0.7,1.9,2,3.1,3.7,3.8
			c-1.5,2.4-2,5.1-0.7,8.4c-1,2.1-0.5,4.4,1.2,6.9c-0.5,2.3-0.2,4.5,1.9,6.5c-0.1,2.3,0.2,4.3,2,5.8c-0.5,3.1,0.3,5.5,2.6,6.7
			c0.6,0.6,0.8,1.3,0.7,2.1c0.2,2.1,1.2,3.6,2.7,4.6C23.8,166.7,24.9,166.2,25.1,164.9 M9.9,118.9c0-1.6,1.6-2.9,3.7-2.9
			c2.1,0,3.8,1.3,3.8,2.9c0,1.6-1.7,3-3.8,3C11.5,121.9,9.9,120.5,9.9,118.9"/>
		<path fill="#FFC425" d="M59.4,161.1V76.6h-7.9v84.6H59.4z M53.2,86.1c0-1.3,1-2.3,2.3-2.3c1.3,0,2.3,1,2.3,2.3
			c0,1.3-1,2.3-2.3,2.3C54.2,88.4,53.2,87.4,53.2,86.1 M53.2,102.2c0-1.3,1-2.3,2.3-2.3c1.3,0,2.3,1,2.3,2.3c0,1.3-1,2.3-2.3,2.3
			C54.2,104.6,53.2,103.5,53.2,102.2 M53.2,118.9c0-1.3,1-2.3,2.3-2.3c1.3,0,2.3,1,2.3,2.3c0,1.3-1,2.3-2.3,2.3
			C54.2,121.2,53.2,120.1,53.2,118.9 M53.2,135.5c0-1.3,1-2.3,2.3-2.3c1.3,0,2.3,1,2.3,2.3c0,1.3-1,2.3-2.3,2.3
			C54.2,137.8,53.2,136.7,53.2,135.5 M53.2,151.7c0-1.3,1-2.3,2.3-2.3c1.3,0,2.3,1,2.3,2.3c0,1.3-1,2.3-2.3,2.3
			C54.2,154,53.2,153,53.2,151.7"/>
		<rect x="47.5" y="76.6" fill="#FFC425" width="2.1" height="84.6"/>
	</g>
	<g>
		<path fill="#FFFFFF" d="M122,0c1.8,0,3.2,1.4,3.2,3.1c0,1.7-1.4,3.1-3.2,3.1c-1.7,0-3.1-1.4-3.1-3.1C118.9,1.4,120.3,0,122,0
			 M122.1,5.8c1.5,0,2.7-1.2,2.7-2.7c0-1.5-1.2-2.7-2.7-2.7c-1.5,0-2.7,1.2-2.7,2.7C119.4,4.6,120.6,5.8,122.1,5.8 M123.8,1.6v0.5
			l-0.7,0.4l-0.9,0.6v0.8h1.6v0.4h-3.5V2.8c0-0.3,0-0.6,0.2-0.9c0.1-0.3,0.5-0.4,0.8-0.4c0.7,0,1,0.5,1,1.1L123.8,1.6z M121.9,3.2
			c0-0.5,0.1-1.2-0.6-1.2c-0.5,0-0.6,0.5-0.6,0.9v1h1.2V3.2z"/>
	</g>
</g>
<g>
	<path fill="#FFFFFF" d="M201,6.5l17.3,111.9h-14.4L201,97.7h-16.8l-2.5,20.6h-14.3L183.1,6.5H201z M191.3,27.5
		c-0.5,14.6-0.5,16.2-0.8,18.1l-4.8,38.5h13.3l-5.5-38.8c-0.6-4.3-0.8-8.6-1-17.7H191.3z"/>
	<path fill="#FFFFFF" d="M240.6,6.3v98.4H265v13.6h-39.3V6.3H240.6z"/>
	<path fill="#FFFFFF" d="M307.2,6.5l7.4,68.6c1.1,9.8,1.1,13.8,1.3,20.9h1.1c0-11.9,0.3-15.8,1.1-25.2l5.4-64.3h14.7l-13,111.9
		h-17.1L302,57.5c-0.6-6.3-0.6-12.5-0.6-19.5h-1.4c0,6,0,14.3-0.3,17.7l-6,62.6h-16.8L264.3,6.5h14.4l5.7,70.2
		c0.8,8.4,0.8,12.5,1,19.5h1c0-10.1,0.2-15.1,0.8-21.1l6.8-68.6H307.2z"/>
	<path fill="#FFFFFF" d="M372.9,6.5l17.3,111.9h-14.4l-2.9-20.6h-16.8l-2.5,20.6h-14.3L355,6.5H372.9z M363.3,27.5
		c-0.5,14.6-0.5,16.2-0.8,18.1l-4.8,38.5H371l-5.5-38.8c-0.6-4.3-0.8-8.6-1-17.7H363.3z"/>
	<path fill="#FFFFFF" d="M402.7,6.5l6.5,26c2.1,8.4,2.5,14.9,3.2,21.5h1.1c0.3-3.6,1-12.4,3.8-22.8l7-24.7h14.9l-18.5,65v46.9h-16
		V71.6L387.5,6.5H402.7z"/>
	<path fill="#FFFFFF" d="M457.4,97.9c0,3.8,0,10.8,7.6,10.8c7,0,7.1-7.1,7.1-13c0-10.5-1.9-15.2-12-30.1
		c-8.9-12.8-15.4-22.3-15.4-36.8c0-6,1.3-11.1,3.8-15.4c4.4-7.1,11.2-9.2,18.9-9.2c13.9,0,18.9,7.6,18.9,19.2v20h-13.5V23.6
		c0-3.5-0.5-7.6-5.9-7.6c-6.8,0-7.4,5.7-7.4,11.3c0,11.4,3.5,16.6,14.4,32.5c7.1,10.6,13.3,19.6,13.3,34.1c0,7.4-1.9,14.6-5.2,19.2
		c-5.2,7-12.7,7.4-16.8,7.4c-21.4,0-21.4-18.5-21.4-24.2V77.5h13.6V97.9z"/>
	<path fill="#FFFFFF" d="M185,232.2c0,3.8,0,10.8,7.6,10.8c7,0,7.1-7.1,7.1-13c0-10.5-1.9-15.2-12-30.1
		c-8.9-12.8-15.4-22.3-15.4-36.8c0-6,1.3-11.1,3.8-15.4c4.4-7.1,11.2-9.2,18.9-9.2c13.9,0,18.9,7.6,18.9,19.2v20h-13.5v-19.8
		c0-3.5-0.5-7.6-5.9-7.6c-6.8,0-7.4,5.7-7.4,11.2c0,11.4,3.5,16.6,14.4,32.5c7.1,10.6,13.3,19.6,13.3,34.1c0,7.4-1.9,14.6-5.2,19.2
		c-5.2,7-12.7,7.4-16.8,7.4c-21.4,0-21.4-18.5-21.4-24.2v-18.7H185V232.2z"/>
	<path fill="#FFFFFF" d="M224.4,140.8h14.4v86.5c0,7.4,0,14.9,9,14.9c8.9,0,8.9-7.4,8.9-15.8v-85.6h14.6v84.8
		c0,7.8,0,28.8-23.9,28.8c-23,0-23-20.1-23-26.1V140.8z"/>
	<path fill="#FFFFFF" d="M304.2,140.8l9.2,56.6c1.7,10.6,1.9,14.4,2.1,24.4h1.3c0.2-6.7,0.3-14.7,1.7-24.1l8.4-56.9h21.7v111.9
		h-13.6v-75.3c0-5.2,0.2-10.8,0.3-16.2H334c-0.3,2.9-1.7,17-2.2,20.1l-9.8,71.3h-12.4l-9.8-69.1c-1.4-9.2-1.9-16.5-2.4-22.3H296
		c0.5,7.9,1,17.7,1,25.5v65.9h-13.6V140.8H304.2z"/>
	<path fill="#FFFFFF" d="M381.4,140.8l9.2,56.6c1.7,10.6,1.9,14.4,2.1,24.4h1.3c0.2-6.7,0.3-14.7,1.7-24.1l8.4-56.9h21.7v111.9
		h-13.6v-75.3c0-5.2,0.2-10.8,0.3-16.2h-1.3c-0.3,2.9-1.7,17-2.2,20.1l-9.8,71.3h-12.4l-9.8-69.1c-1.4-9.2-1.9-16.5-2.4-22.3h-1.4
		c0.5,7.9,1,17.7,1,25.5v65.9h-13.6V140.8H381.4z"/>
	<path fill="#FFFFFF" d="M437.6,140.8h36.9v14.1h-21.9v32.6h19.6v13.8h-19.6v37.2h22v14.1h-37.1V140.8z"/>
	<path fill="#FFFFFF" d="M484.7,140.8h24.1c18.1,0,20.1,4.9,20.1,27.1c0,19.6-0.5,27.7-12.5,27.6v0.6c10.6,1.3,12,7.3,12,22.2v12.2
		c0,13.5,0.3,15.5,2.9,22.2h-15.4c-1.3-6.5-2.4-12-2.4-23.4v-7.9c0-4.3-0.2-13.2-1.9-16.8c-1.7-3.3-3.5-3.3-12.2-3.3v51.5h-14.7
		V140.8z M499.6,154.3v34.5h7c7.4,0,7.8-3.3,7.8-21.9c0-12.4-0.8-12.7-7.1-12.7H499.6z"/>
</g>
<g>
	<rect x="147" y="6" fill="#FFC425" width="4" height="246.4"/>
</g>
</svg>
